<?xml version="1.0" encoding="utf-8"?>
<!-- Generator: Adobe Illustrator 23.0.6, SVG Export Plug-In . SVG Version: 6.00 Build 0)  -->
<svg version="1.1" id="Layer_1" xmlns="http://www.w3.org/2000/svg" xmlns:xlink="http://www.w3.org/1999/xlink" x="0px" y="0px"
	 viewBox="0 0 5534.1 7421.8" style="enable-background:new 0 0 5534.1 7421.8;" xml:space="preserve">
<style type="text/css">
	.st0{fill:#0056C4;}
	.st1{fill:#FFFFFF;}
	.st2{fill:#E86600;}
</style>
<g>
	<g>
		<g>
			<path class="st0" d="M3630.2,1404.4l-31.8-2.6l4.4-8.7c3.2-6.3,6.3-12.8,9.4-19c6.9-14,14-28.4,21.5-42.4
				c6-11.1,12.5-22.1,18.9-32.7c13.9-23.3,28.2-47.5,37-72.7c0.9-2.5-1.2-11.8-8.5-23.6c-7.1-11.5-13.8-16.7-15.8-17
				c-20.9-1.2-33.7-7.2-40.4-18.9c-5.9-10.3-5.9-22.9-5.9-37.6c0-2.3,0-4.6,0-6.9c-0.1-9.3-2.4-21.8-5.8-32
				c-4.4-12.9-9-17.4-10.8-18c-37.6-11.5-57-25.4-60.9-43.8c-3.5-16.2,5.7-34.6,27.9-56.1c-20.3-6.8-33.9-18.2-41.3-34.6
				c-7.6-16.6-7.6-35.5-7.7-53.7c-0.1-21.8-0.2-40.8-12.5-51.9c-11,1.6-22,2.4-32.7,2.4c-68.5,0-121.7-33-178-67.9
				c-9.5-5.9-19.3-11.9-29.2-17.9l-10.1-6.1l131.6-67.6c-16.3-2.2-31.5-4.1-46.3-6c-41.7-5.2-77.7-9.8-112.1-18.8
				c-31.2-8.2-61.7-20.6-91.1-32.5c-20-8.1-40.8-16.5-61.4-23.5c-18.3-6.2-30.6-8.9-39.8-8.9c-20.7,0-30.3,14.9-39.8,64.6
				c26.6-13.9,47.1-24.6,67.7-35.4l5-2.6l3.3,4.6c19.5,27,29.1,45.2,23.5,64.3c-5.3,18.2-24,35.6-58.9,63.3l-3,2.4l-3.5-1.4
				c-12-4.9-23.8-9.8-35.2-14.6c-25.4-10.7-49.5-20.8-74.3-29c-17.7-5.8-36.3-10.4-54.4-14.9c-24.9-6.1-50.6-12.5-74.8-22.3
				c-31.6-12.8-93.6-34.3-154.5-34.3c-53,0-90.8,16.5-112.2,49.2l-3,4.5l-5-2.1c-7.6-3.2-15.2-6.7-22.5-10.1
				c-16.6-7.7-32.2-15-48.8-18.8c-9.2-2.1-17.5-3.2-24.7-3.2c-26.5,0-39,14.4-39.4,45.3v1.5l-29.1,58.2l-56.1-3.4l3.5-8.5
				c4.4-10.9,9.4-21.7,14.3-32.2c10.3-22.4,21-45.5,26.3-69.1c32.6-144.5-28.3-271.5-167.2-348.7l-29.7-11.6l-23.8-5.4l-1.3-1.3
				c-18.8-18.1-39.6-26.9-63.6-26.9c-24.2,0-49.4,8.8-73.1,18.3l-0.7,0.3l-20.3,3.5l-30.6,21.3c-3.2,4.2-7.1,4.9-9.2,4.9
				c-0.9,0-1.8-0.1-2.7-0.3l-15.9,9.6l-41.1,24.4l-12.8,8.8l-36.5,9.9l-21.8-5.3l-1.4-1.7c-2.5-3-3.9-6.4-4.4-10.1l-13.6-12.1
				c-31.6-11.4-52.4-16.2-69.5-16.2c-30.2,0-50.7,14.7-84.6,60.5c-7.4,10-20,15.4-32.1,20.5c-3.9,1.6-7.6,3.2-11,4.9
				c-6.5,3.2-13.4,5.7-20.1,8.1c-11.8,4.3-23,8.3-31,15.5c-23.5,20.9-45.8,44-71.6,70.8c-8.5,8.8-17.2,17.8-26.5,27.4l324.1,3.1
				l-0.9,7.3c-10.2,85.4,12.3,166.1,70.7,254l4.2,6.3l-6.9,3.2c-4.5,2.1-9.3,3.9-13.9,5.6c-9.7,3.6-18.9,7-24.5,13
				c-3.8,4.1-4.8,12.6-5.8,20.9c-0.9,7.4-1.8,15.1-4.8,21.3c-3.9,8.1-11,12.4-20.4,12.4c-4.5,0-9.4-0.9-15.3-2.8
				c-12.4-4-15.9-23.2-20-45.5c-1.7-9.1-3.4-18.4-5.7-25.7c-0.9-3-2.8-6-5.4-10.2c-0.8-1.2-1.6-2.5-2.4-3.9
				c-2.1,0.6-4.3,1.2-6.4,1.8c-3.8,1-10.1,2.7-12.3,4c-6.8,32.8-20.1,60.9-40.8,85.8c-18,21.7-41.1,40.4-70.7,57.3
				c0.2,0.8,0.4,1.6,0.6,2.3c0,0.1,0,0.2,0.1,0.3c69.8,11.6,109.8,22.8,120.5,47.1c8.6,19.6-2.9,44.1-22.9,74.9l-1,1.5l-29.5,14.8
				l-1.9-0.2c-12.1-1.1-24.4-2.6-36.2-4.1c-21.6-2.7-43.9-5.5-65.4-5.5c-4.8,0-9.5,0.1-14,0.4s-9.1,0.5-13.5,0.7
				c-44.9,2.2-87.2,4.3-109.1,58.5c-3.7,9.2-9.8,22.8-19.5,34c-11.3,13.1-24.7,19.8-39.8,19.8c-12,0-25.1-4.2-38.8-12.6l-5.5-3.4
				l3.3-5.6c2.7-4.6,5.1-9.2,7.4-13.6c5.2-10,10.1-19.4,17.6-26.6c8.4-8,18.8-13.5,29.7-19.4c1.5-0.8,3.1-1.7,4.7-2.5
				c-30-16.7-48.9-26.6-61.9-26.6c-18.3,0-29.2,22.2-54.7,75.7l33.7,57l-22.1,26.4l-64.5-29.7l5.6-51.6l11.2-16.6l-8.2-11l6.9-20.1
				l4.1-2.3l-1.5-1.4l6.8-16.3l-2.5-23.5l25.6-21.5h305.4l19.6-0.2l79.6-11.9c-6.1-14.4-11.5-21.7-16.8-22.8
				c-3.1-0.6-6.2-1.2-9.3-1.9c-48.3-9.6-98.3-19.4-120.1-81.5c-2-5.6-17.4-9.7-29.7-13.1c-10.4-2.8-21.2-5.7-29.9-10.2
				c-2.1-1.1-4.3-2.2-6.6-3.4c-17.8-9.1-38-19.4-46.8-35.8c-24.2-45.5-60.3-67.3-117-70.7c-26.2-1.6-54.6-10.2-78-23.8
				c-24.2-14-47.6-21.1-69.5-21.1c-32.9,0-63.2,16.1-90.1,47.7l-2.4,2.8l-28.8-4.8l11.7-62l0.2-0.6c6.5-16.1,14.3-32.3,21.8-47.9
				c15.9-33.2,32.4-67.6,37.1-102.3c34.8-257.2-8.1-365.3-191.1-482c-24.5-15.6-51.6-28.7-77.7-41.3c-12.2-5.9-24.7-12-37-18.2
				l3-12.4h3371.1l-3.3,8.9c-2.1,5.8-3.9,12.1-5.7,18.2c-4,14-8.1,28.6-17.1,39.9c-103.4,131.6-162.8,284.6-176.6,455l-0.3,4.1
				l-48.1,18.2l-7.3-29.2c-38.9-24.4-69.5-35.8-96.2-35.8c-45.1,0-83.1,31.8-131.2,109.7l-2.4,3.9l-4.5-1
				c-10.5-2.2-20.5-3.4-29.7-3.4c-33.8,0-55.5,15-64.5,44.7c-18.2,60.2-61.9,74.4-112.9,85.8c-19.3,4.3-38.3,13.4-56.6,22.1
				c-6.9,3.3-14.1,6.7-21.2,9.9l3.7,21.8c67.8,5.6,140.1,8.1,233.5,8.1c44.3,0,89.3-0.6,132.9-1.1c43.6-0.5,88.7-1.1,133.1-1.1
				c44.7,0,84.1,0.6,120.4,1.8l2.9,0.1l136.7,163.4l-25.1,123.6l0.5,0.8l-26.4,43.3l-7.3,20.4l-7.2,26.2l0.4,27.9l-19.9,39.6
				l-42.2,4l-11.7,1c-114.8,12.2-218,63.2-324.8,160.8l-1.7,1.6l5.2,0.4l-16.1,9.1l-0.2,2.7l-4-0.3l-9.5,5.4L3630.2,1404.4z
				 M3649.1,1392.8l-4.7-1.9l-0.1,1.5L3649.1,1392.8z M1582.9,845.2l25.4-76.2c-1.7-0.6-3.5-1.3-5.2-2c-5.2-2-11-4.3-14.3-4.3
				c-0.4,0-0.6,0-0.7,0.1c-27.3,18.2-32.8,43.9-16.6,78.5L1582.9,845.2z"/>
		</g>
		<g>
			<path class="st1" d="M1451.5,2267.7l-110.6-4.3l-6.3-20.2l0.2-1.4c16.5-121.3-33.3-201.9-166.5-269.4l-4-2l2.6-24.8l72.4-26.9
				l28.6,6.3l-1.6,25.1c8.1,46.9,21.4,46.9,25.8,46.9l0,0c7.7,0,18.1-5.4,31-16.1c64.6-53.3,109.9-126,134.4-216l0.4-1.6l17.1-17.5
				l2.2-0.3c6.8-1,13.7-2,20.3-3.1c14.6-2.3,29.8-4.6,44.9-6.2c18.4-2,34.4-2.9,48.8-2.9c31.2,0,57.4,4.5,80.1,13.8
				c27,11,49,28.6,67.4,53.7c7.3,10,10.2,22.3,13.6,36.6c1.2,5,2.4,10.2,3.9,15.6c3.4-0.5,6.8-0.8,10.2-0.8
				c42.2,0,69.1,40.2,85.7,70.4c8.3,15.1,19.8,29.1,31,42.6c3.7,4.5,7.4,9,11.1,13.7l0.7-0.6l-89.9-133l7.5-3.1
				c26.6-11,53.5-16.5,79.8-16.5c40.7,0,78.5,13.3,109.4,38.6c31.3,25.5,54.2,62.3,66.2,106.3c4.5,16.6,14.1,32.7,25.1,41.8
				c20.2,17,42.7,32.3,64.4,47.1c7.7,5.2,15.5,10.6,23.3,16c12.8-9.8,26.9-14.9,41.1-14.9c22.1,0,42.3,12.8,55.4,35
				c29.5,50.1,72.1,66.3,131.4,76c16.5,2.7,30.5,15.5,44.1,27.8c5.7,5.2,11.7,10.6,17.5,15l8,5.9l-8.6,5c-6.3,3.7-12.8,8.3-19,12.7
				c-14.7,10.5-29.9,21.3-46.7,23c-44.1,4.5-89.2,5.2-132.8,5.8c-17.1,0.2-34.9,0.5-52.3,1h-0.1L1451.5,2267.7z"/>
		</g>
		<g>
			<path class="st1" d="M3141,3175.2c-59.5-0.1-119-0.1-178.5-0.2c-183.5-0.2-373.3-0.3-559.9-1.3c-24.2-0.1-48.5-3.5-72-6.7
				c-10.7-1.5-21.9-3-32.7-4.2l-6.4-0.7l0.6-6.4c0.1-1,0.1-2.5,0-4c-0.1-5.1-0.2-11,4.6-13.8c17.7-10.4,37.3-17.8,56.3-24.9
				c38.7-14.5,75.3-28.3,98.3-66c2.7-4.5,8.5-5,12.7-5c4.8,0,10.3,0.8,13.2,1.3c7,1.2,13.3,1.9,18.8,1.9c11.9,0,20.4-2.8,25.8-8.7
				c7.8-8.5,10.5-24.3,8.4-49.7c-2.9-34.1,4.5-61.8,21.2-80c13.9-15.1,33.9-23.1,57.9-23.1h0.5c27.2,0.1,47,7.6,58.8,22.1
				c9.5,11.7,13.8,27.5,12.9,48c2.7-5.5,3.8-10.2,3.6-14.7c-1.3-33.8,5.3-68,18.6-96.3c13.7-29.2,33.7-49.9,56.2-58.5
				c15.7-6,33.1-9,51.7-9c25.3,0,51,5.6,74.3,16.2c24.7,11.3,45.7,27.7,60.5,47.6c18.7,25.1,37.7,35.8,63.5,35.8
				c4.2,0,8.7-0.3,13.4-0.9l2.4-0.3l26.9,17.9l88,132.2l73.9-47.9l10.5,39.3l-3.2,2.7c-42,35.2-65.6,83.4-74.2,151.5l-0.7,5.8
				L3141,3175.2z"/>
		</g>
		<g>
			<path class="st1" d="M3593.9,794.1c-96.1,0-170-2.6-239.6-8.5l-5.1-0.4l-7.1-42l4.8-2c8.5-3.6,17.1-7.7,25.5-11.7
				c19-9.1,38.7-18.5,59.4-23.1c48.6-10.8,87-23.3,103.1-76.7c10.7-35.3,37.3-54,77-54c8.7,0,18.1,0.9,27.8,2.8
				c24.1-38.6,45.4-65,66.8-83c23.3-19.6,47.2-29.1,73.1-29.1c29.8,0,63.3,12.5,105.4,39.2l5.2,3.3l-3,5.4
				c-3.7,6.8-7.4,13.7-11,20.5c-18.5,34.9-37.5,70.6-69.6,94.7l31-5.8l45.3-93.2l46.9-17.8l7.7,35.8l36.9,184.8l13.9,60.7l-8.5-0.3
				c-36.1-1.2-75.4-1.7-119.9-1.7c-44.3,0-89.3,0.6-132.9,1.1C3683.4,793.5,3638.3,794.1,3593.9,794.1z"/>
		</g>
		<g>
			<path class="st0" d="M3019,5478.3l-11.3-15.9l-0.2-1.5c-1.1-6.8-2.8-14.1-4.6-21.1c-4-16.5-8.2-33.5-4.6-49.4
				c5.2-22.7,3.8-39.4-4.2-51c-8.1-11.7-23.5-19-47.3-22.4l-6.8-1l1.3-6.8c0.3-1.8,0-3.1-1.2-4.5l-0.4-0.5l-0.3-0.5
				c-1.5-2.6-2.8-5.3-4.1-7.9c-2.4-4.9-4.6-9.6-7.7-12c-48.3-37.9-87.8-80.1-117.3-125.4c-31.4-48.3-52.9-102.2-63.8-160.1
				c-0.8-4.1-9.4-9.5-16.4-13.7c-4.3-2.6-8.7-5.4-12.5-8.3l-0.7-0.6l-0.5-0.7c-0.2-0.3-0.4-0.4-0.4-0.5h-0.1c-0.1,0-0.3,0-0.5,0.1
				l-3.8,0.7l-122.1-143.8l223.5-9.6l3.2,12.5l-119.9,58.6c57.2,27,101.5,50.8,107.7,117.2c7.7,82.4,43.1,145,105.3,186
				c38.8,25.6,76.5,59.1,109.2,96.9c9.6,11.1,19.5,27.6,25.8,43.1c5.5,13.5,10.6,31.9,3.8,43.4c-10.1,17.2-13.6,30.3-10.8,40.3
				c3.5,12.1,16.2,20.8,37.1,31.6c10.1,5.2,17.4,14,25.8,24.3c2.3,2.8,4.7,5.6,7.2,8.5c38.4-65.4,15.7-128.3-11.1-187.3
				c-25.3-55.6-59.8-107.5-93.3-157.8c-14-21-28.4-42.7-41.7-64l-1.8-3l1.4-3.2c10.1-22.8,28-40.9,45.4-58.5
				c30-30.3,55.9-56.5,36.5-99.6c-17-37.9-46.7-71.4-75.4-103.9c-13-14.7-26.4-29.8-38.5-45.3l-0.9-1.1l-13.6-53.6l-11.7-35.4
				l-22.4-0.4l-44.8,0.6l-0.9-30l-38.3-38.9l-13.4-26.2l-25.9-26.2l-0.2-0.2c-7.4-9-14.7-18.3-21.7-27.3
				c-16.8-21.5-34.2-43.7-53.4-63.2c-6.5-6.6-19.7-12.8-30.4-17.8c-5.8-2.7-11.2-5.3-15.2-7.7c-2.7-1.6-9.9-5.9-8.7-12.8
				c3.8-22.8,18.3-43.3,32.2-63.1c1.2-1.7,2.3-3.3,3.5-5c22.1-31.6,45.8-65,72.3-95.3c16.7-19.1,27.1-42.6,38.1-67.5
				c18.5-41.8,37.6-85,89.1-105.2c4-1.6,10.9-10.8,14.2-16.2c-14-13.9-19.3-24.3-17.3-33.4c2.5-11.4,15.2-15.6,27.5-19.7
				c6.8-2.3,13.9-4.6,18.2-7.9c6.1-4.5,10.1-13,14.2-22c2.9-6.2,5.8-12.6,9.8-18.2c8.3-11.9,17.5-23.3,26.4-34.3
				c3.8-4.7,7.7-9.6,11.5-14.4l4.5-5.7l5.2,5c2.1,2,4.1,4,6.2,6l2.7,2.6l-27.7,115.5l-5.6,43.2l-3.3,1.5
				c-99.7,46.8-158.9,128.5-180.9,249.6l-0.5,2.6l-105.2,76.4l105.8,4.8l87.3,149.6l17,15l0.6,1.2c1,2.1,2.2,2.8,4.5,2.8h1.1
				l43.1,14.3l28.4,18.2l41.8,125.5v0.9c0.1,2.5,1.1,4,3.2,5.2l0.9,0.5l0.7,0.7c2.6,2.7,4.8,5.8,6.8,9l0.5,0.9l0.2,1
				c0.1,0.5,0.2,0.6,0.6,0.8l1.4,0.7l23.6,31.1l9.1,10.1l17.8,18.5l0.4,1.8c0.5,2.3,1.6,3.6,3.9,4.5l1.5,0.6l36.7,41l0.7,43
				l-0.1,0.5c-8.7,61.6-21.9,119.3-85.1,149.1c6.3,8.9,12.7,17.6,18.9,26.1c17.3,23.6,33.6,45.9,47.4,70.5
				c32.3,57.7,68.8,123.1,82,189.6c7,35.3,7,68.1,0.2,100.2c-7.7,35.9-23.7,70-49,104.2c-0.3,0.8-0.4,3.3-0.4,4.7
				c0,1.6-0.1,3.3-0.3,5.1l-1.8,14.2L3019,5478.3z"/>
		</g>
		<g>
			<path class="st0" d="M2248.7,3131.3l7.3-5.4c3.6-2.7,7.1-5.6,10.8-8.7c8.3-7,17-14.2,27.2-18.6c11.6-4.9,23.8-8.5,35.6-12
				c15.4-4.6,30-8.9,43.4-15.9c30-15.6,59.4-33.7,87.9-51.3c12-7.4,24.4-15,36.7-22.4l3.6-2.2c0,0,3.7,2.6,3.8,2.7
				c-4.2-44.9,11.9-100,37.9-128.9c11.7-13,24.7-19.9,37.7-19.9c0.3,0,0.7,0,1,0c8.5,0.2,17.1,1,25.4,1.7c9.6,0.8,18.6,1.6,27.1,1.6
				c29.7,0,48.3-9.8,49.5-58.4c0.2-7.9,9.5-11.2,22.3-15.7c3.7-1.3,7.2-2.6,9.9-3.8c35.2-15.5,70.8-23.4,105.9-23.4
				c41.1,0,81.8,10.7,121.2,31.8c3.4-20.5,6.7-40.8,10.1-61c10-60.6,19.5-117.9,29-176.3c2.9-17.6,5.6-35.6,8.2-53.1
				c1.2-8.1,2.4-16.3,3.7-24.4l0.1-0.9l0.4-0.8c18.9-41.8,42.7-78.8,72.8-113.1c26.8-30.5,57.9-58.2,95.3-84.6
				c69.1-48.8,149.2-85.5,226.7-121.1l3-1.4c25.6-33.2,35.1-62.2,3.2-103.4c-16.8-21.7-19.8-51.5-7.7-76.1
				c9.4-19.1,25.9-30.5,44.2-30.5c2.7,0,5.4,0.2,8,0.7c7.6,1.3,14.7,2,21.3,2c32.3,0,51.7-16.3,59.5-49.7
				c2.6-11.1-1.6-24.3-11.8-37.2c-17.9-22.7-48.8-38.6-75.2-38.7c-8.1,0-16.5-0.1-25.7-0.1c-18.6,0-37.4,0.1-55.7,0.1
				c-18.3,0.1-37.1,0.1-55.7,0.1c-45.8,0-80.8-0.5-113.5-1.5c-13.5-0.4-25.9-8.6-37.9-16.5c-5.3-3.5-10.3-6.8-15.2-9.4l3.1-12.4
				l415.6,0.5l58.5,124.2l-14.5,36.7l-81.9,41.9l-10.2,10.1c-47,59.5-58.7,119.4-35.7,183.1l1.6,4.4l-51.1,40.6l-34.2,6.6h-0.2
				c-83.6,11.6-156.9,49.2-218,111.6c-1.7,3-4,5.3-7,7l-84.8,103.5l-9.2,14.7l-20.8,39.3l-6.5,13.7l-17.2,72.2l-7.5,35.2
				c-0.7,8.1-1.9,16.2-3,24.1c-2.5,17.8-4.9,34.7-3.1,51.2c4.7,44.2,11.6,88.9,18.3,132.2c2.7,17.4,5.5,35.5,8.1,53.2l1,6.7
				l-6.7,0.8c-5.2,0.6-10.3,0.9-15,0.9c-30.1,0-52.9-12.7-74.1-41c-26.5-35.6-75.3-58.6-124.3-58.6c-17,0-32.9,2.7-47,8.1
				c-19.3,7.3-36.7,25.7-49,51.8c-12.4,26.4-18.6,58.5-17.4,90.2c0.6,16.3-10.1,31.4-21.7,45.4l-11.5-5.5
				c6.1-29.7,3.9-51.3-6.7-64.4c-9.2-11.3-25.5-17.1-48.6-17.2h-0.4c-20.2,0-36.9,6.5-48.2,18.9c-14.2,15.4-20.3,39.6-17.8,70
				c2.5,29.7-1.1,48.1-11.8,59.7c-8,8.7-19.6,13-35.4,13c-6.3,0-13.4-0.7-21.1-2.1c-4.1-0.7-8.1-1.1-10.9-1.1
				c-1.1,0-1.8,0.1-2.3,0.1c-25.3,40.5-65.3,55.6-104,70.1c-17.8,6.7-36.1,13.6-52.4,22.8c0,1,0,2.4,0,3.3c0,1.8,0.1,3.7-0.1,5.4
				l-0.6,6h-0.4v7.1L2248.7,3131.3z"/>
		</g>
		<g>
			<path class="st0" d="M2563.7,4659.9l-4.9-23.1v-0.2c-12.4-89.2-47.8-146.8-111.7-181.2l-0.4-0.2l-16.9-12.6l-148.2-69.1
				l-44.3-116.1l2.5-29.2l5.9-0.1c59.3-1.3,103.8-39.7,108.2-93.4c4-48.4-36.9-93.5-97.2-107.1l-3.2-0.7l-14.9-33.2l20.9-21.6
				l1.5,0.3l21.6-13.7l2.3,0.2c65.6,6.4,119.9,9.4,170.7,9.4c70.1,0,133.4-5.8,193-17.8c-9.6-4.8-20-8.8-30.2-12.7
				c-22.3-8.5-43.4-16.6-53-32.8c-23.5-39.6-50.8-57.3-88.3-57.3c-6.7,0-13.9,0.6-21.5,1.7l-5.4,0.8l-1.8-5.1
				c-14.2-40.7-26-61.6-42.1-74.6c-16.2-13.1-37.8-19.6-79.7-24.2l-2.5-0.3l-1.7-1.9c-1.2-1.4-2.6-2.7-4.1-4.1
				c-3.5-3.4-7.1-7-9.6-11.7c-67.1-127.9-135.9-180.1-237.4-180.1c-36.6,0-78.9,6.7-129.3,20.4l-4.5,1.2l-21.6-31.6l2.3-3.7
				c11.7-18.3,12.2-26.7,10.7-30.4c-2.3-5.6-12.5-7.8-23.3-10.2c-15-3.3-33.7-7.5-40.3-24.2l-4.3-10.7l97.2,15.4
				c5-45.1-17.1-79.3-40.4-115.3c-8.2-12.7-16.7-25.8-23.8-39.4l-5.7-10.9l12.2,1.3c28.2,3,48.9,13.6,63.5,32.4
				c12.1,15.7,19.7,36.6,23.7,65.9c3,21.5,8.5,43.2,13.9,64.1c1.5,5.9,3,11.9,4.5,17.9l10.5-10.1l216.5,66.6l15,0.3l28.4,28.9
				l80.4,132.3l11,10.9l119.9,40.8l26.4,39.8l100.8,49.4l0.4,3.6c2,17.1,13.1,38.4,18,44.5c9-3.2,17.2-4.7,25-4.7
				c27.4,0,42.5,18.8,57.1,36.9c5.6,6.9,10.8,13.4,16.7,18.9l4.2,3.9l-3.3,4.7c-12.1,16.9-24.3,28.9-37.3,36.7
				c-13.7,8.3-28.9,12.3-46.3,12.3c-9.8,0-20.3-1.2-32.1-3.8l-2.7-0.6c-22.8-4.9-46.3-10-69.1-10c-36.2,0-62.1,13.3-81.7,41.8
				l-2.8,4.1l-4.7-1.6c-3.5-1.2-6.5-2.3-9.1-3.3c-4.7-1.7-8.4-3.1-11.8-3.8c-15.5-3-31.3-5.7-46.5-8.4c-3.1-0.5-6.3-1.1-9.4-1.6
				c0.3,4.2,0.4,8.4,0.6,12.6c0.7,15.7,1.3,30.5,6.2,43.6c5.9,15.8,15.5,30.2,25.8,45.5c4.5,6.6,9.1,13.5,13.3,20.5l2.5,4.1
				l-108.1,124.4l17.4,80.1c75.2,6.6,138.5,39.8,188.1,98.9c22.6,26.8,42.2,59.1,58.4,95.8c15,34.1,27.2,72.3,36.1,113.4l1.9,9
				L2563.7,4659.9z"/>
		</g>
		<g>
			<path class="st0" d="M3738.9,6791.4c-29.7-21.3-39.2-52.8-48.4-83.2c-11.2-37.2-21.1-69.6-64.6-81.8l31.2,117.5
				c0,0-4.4,4.4-5.3,5.3l-26.4,40.4h-4.1c-4.3,0-8.6-0.1-12.9-0.3l-3.5-0.2l-19.3-31.8l22.6-40.9l-24.4-16.8l-3.8,5.1l-3.3-10.1
				l-7.4-5.1l4.8-2.6c-2.2-6.3-4.4-12.6-6.6-18.7c-6.6-18.5-13.5-37.7-18-57.3c-4.9-21.2-7.7-43.1-10.4-64.3
				c-1.2-9.1-2.4-18.6-3.7-27.8l-0.1-0.5l0.2-41.3l-42.2,22.9l13.6-21.4c5.6-8.8,11.5-17.6,17.3-26c13-19.2,26.4-39,36.2-59.9
				c8.5-18.2,13.5-38.8,18.3-58.7c1.4-5.7,2.8-11.5,4.3-17.4l-5.4,0.9c-19.6,3.3-39.8,6.7-59.7,9.9c-0.7,0.1-1.4,0.2-2.2,0.2
				c-1.7,0-3.2-0.3-4.6-0.5c-0.4-0.1-0.8-0.2-1.2-0.2c-1,0-2,0-3,0c-4,0-8.1-0.2-12.1-0.5c-4-0.2-7.8-0.4-11.4-0.4
				c-9.1,0-14.3,1.4-16.7,4.6c-2.3,3.1-3.9,10.4,1.3,27.5l1.1,3.8l-27.9,27.5l-26.5,21.4l20.6,7.5l27.9-1.3l2,1.8
				c1.7,1.6,3.5,3.1,5.4,4.6l2.7,2.3l-0.4,3.5c-5.5,50.9-44.9,56.9-74.1,56.9h-4.2l-12.4-26.5c-6.4,12-12.2,20.8-17.6,27.2
				c-8.2,9.6-16.5,14.3-25.2,14.3c-0.3,0-0.6,0-0.9,0h-1.3l-37-16.2l-18.5-15.8l3.4-25.7l7.5,2.5c7.8,2.6,14.8,3.9,20.7,3.9
				c7.8,0,13.9-2.2,17.9-6.7c5.8-6.3,8.2-17.4,7-32.2c-1.6-19.6-6.7-39.4-11.6-58.7c-2.2-8.7-4.5-17.7-6.5-26.7l-0.8-3.4l2.4-2.5
				c2-2.1,4.1-4.3,6.2-6.4l4-4.2l37.9,28.6c1.4-1.5,2.8-3.1,4.2-4.8c7.2-8.4,14.7-17,24.6-18.6c50.7-8,81.6-36.3,97.4-88.9l0.6-1.9
				l19.2-15.9l3.7,1.7c10.5,4.8,22.6,8.9,34.3,12.9c28.4,9.7,57.7,19.7,71.3,41c12.1,18.8,6.5,46.9,0,79.4c-0.7,3.5-1.4,7-2.1,10.6
				c6.9-9.2,14.5-16.5,23-22.2c14.3-9.5,31.1-14.1,51.4-14.1c17.6,0,35.9,3.4,53.6,6.7c5.5,1,11.1,2.1,16.6,3l8.5,1.4l-3.6,7.8
				c-6.1,13.4-7.5,23.7-4.1,30.6c3.1,6.2,10.6,10.8,22.3,13.4l0.5,0.1l157.5,65.6l16.2,16.7l-8.1,4c-19.5,9.6-23.3,20.8-24.4,28.4
				c-1.7,11.3,1.7,24.1,5.2,37.6c1.4,5.3,2.9,10.8,4,16.2l0.7,3.6l-19.6,18.3l-19.3-6.7l1.7,16.3l5.2,2.7l-4.4,4.9l0.8,8.1l-7.1-3.8
				c-0.2,0-0.3,0-0.5,0h-5.9l-0.4-3.6l-108.9-57.4l-50.2,31.5c-0.4,3.6-0.9,7.2-1.4,10.7c-1.4,10.2-2.7,19.8-2,29.2
				c1.4,18.5,4,36.8,6.8,56.1c1.2,8.1,2.4,16.4,3.5,24.8l-4.2,0.6v6.9h-11l27.6,111.7L3738.9,6791.4z M3644.4,6420.8
				c-9.5,48.2-17.9,97.5-15.7,145.6c0.5,11.8,17.9,25.1,34.7,38c6.2,4.7,12.4,9.6,18.1,14.5l40.1-63.6l24.4-55.1L3644.4,6420.8z
				 M3583.8,6597.9v-50.3l-2.6-0.1l-2.8,50.2L3583.8,6597.9z M3850.3,6521l-0.5-0.4l-0.2,0.3L3850.3,6521z M3703.4,6399.2
				c33.6,35.9,64.2,54,98.7,58.1l2.6-5.2l-99.8-52.9C3704.8,6399.2,3703.8,6399.2,3703.4,6399.2z M3648.5,6400.6
				c-1,4.8-1.9,9.6-2.9,14.4l43.9-16.1c-2.6-0.1-5.3-0.2-7.9-0.3c-7.9-0.3-16-0.6-22.5-0.6c-5.4,0-8.4,0.2-10.2,0.4L3648.5,6400.6z
				 M3377.3,6361.6l30.2-13.5l-0.9-2.6l-29.3,6.4V6361.6z"/>
		</g>
		<g>
			<path class="st1" d="M1236,1030.4l-26.6-16l-17.7-65.9l-23.6-53.1l-14.5-23.9l-141.9-106l4.5-5.3c29.5-34.7,63.2-52.3,100.1-52.3
				c24.2,0,49.8,7.7,76.1,22.9c21.7,12.6,48,20.6,72.2,22c29.9,1.8,54.4,8.4,74.7,20.2c21.9,12.7,39.3,31.5,53.1,57.4
				c6.8,12.8,25.1,22.1,41.1,30.3c2.3,1.2,4.5,2.3,6.7,3.4c7.4,3.8,17.5,6.6,27.2,9.2c17.7,4.8,34.5,9.3,38.7,21.4
				c19.3,55,61.5,63.3,110.3,73c3.1,0.6,6.2,1.2,9.3,1.9c11.4,2.3,20,13.5,29.5,38.6l2.9,7.6l-96.8,14.4l-20.5,0.2H1236z"/>
		</g>
		<g>
			<path class="st1" d="M2455.6,3981.4c-51.3,0-105.9-3-172-9.4l-8.2-0.8l11.1-33.8l0.6-0.9c46.9-63.4,43.3-134.5,33.7-195.8
				l-1.3-8.5l8.5,0.9c37.9,4.2,65.6,10.1,86.5,27.1c20,16.2,32.5,41.8,44.5,75.4c6.3-0.7,12.3-1.1,18-1.1c21.4,0,39.7,5.1,56,15.5
				s30.5,26.2,43.6,48.2c7.3,12.3,26.3,19.6,46.4,27.3c16.1,6.2,32.8,12.6,47.1,22.5l12.4,8.5l-14.7,3.3
				C2602.6,3974.3,2533.2,3981.4,2455.6,3981.4z"/>
		</g>
		<g>
			<path class="st0" d="M4065.6,6842.1l-0.2-0.4c-4.3-9.3-3.2-20.3-2.1-30.9c1.1-10.9,2.2-21.2-2.9-27c-3.8-4.4-11.5-6.9-22.8-7.3
				l-2.1-0.1l-1.6-1.3c-7.8-6-15.4-12.8-22.7-19.4c-16.4-14.8-32-28.8-49.9-34.2c-25.2-7.7-52.3-8.2-78.5-8.7
				c-10.8-0.2-20.9-0.4-30.6-1.1l-15.3-1.1l11.4-10.3c18.5-16.8,28.7-26.1,52.7-26.1c20.7,0,51.8,7.1,111.4,21.2l-18.8-67.6
				l18.6-22.1l3.4,1.8l-9.2-26.8l-3.8,1.2l4.8,24.5l-13.9,12.4l-33,41.8l-69.4-76.8l3.5-3.6l5.5-6.1l0.2,0.3l16.5-16.8l18-16.8
				l26.8,19.3c-3.8-16-2.9-27.4,2.6-35.3c5.2-7.5,14.4-11.3,27.2-11.3c5.3,0,11.2,0.6,18.1,1.8c2.1-1.6,6.2-7.1,8.7-10.5
				c2.4-3.3,5-6.7,7.4-9.5l2.4-2.6l3.5,0.5c8.5,1.3,17.1,2.4,25.4,3.6c19.3,2.7,39.2,5.4,58.7,9.2c18.2,3.6,36.3,8.3,53.9,13
				c7.7,2,15.6,4.1,23.4,6l-1.6,12.9h-84l-16.8,80.7l-27.8-5.6l30.7,83.4l5.1-1.8l13.2-39.2l18.3,58.8c0.4,0,0.8,0,1.3,0
				c12,0,24.2,4.9,36,9.6c11.2,4.5,21.9,8.8,31.6,8.8c9.2,0,22.8-3.5,34.9-34.1l8.2-20.6l12.8,63.8l1.5,27.7l1.1,15l-60.7,68.3
				l0.6-34.7l-30,7.4c3.7,3.7,6.1,7.6,7.1,11.8c2.7,10.9-3.9,20.7-9.7,29.3c-4.9,7.3-9.5,14.1-7.6,19.5l1.7,4.9l-1.9,1.2l-9.5,78.5
				L4065.6,6842.1z M4135.8,6749.6c-1.9,8.9-5.6,17.5-9,25.3c-5,11.5-9.7,22.4-6.1,28.8c3.1,5.4,12.3,9.3,27.6,11.7l28.8-40.6
				L4135.8,6749.6z M4048.2,6730.8c3.4,0.9,11.7,1.3,18.6,1.6c3.7,0.2,7.6,0.4,11.7,0.7l-24-39.8
				C4047.4,6706.7,4045.3,6719.2,4048.2,6730.8z"/>
		</g>
		<g>
			<path class="st1" d="M2570.7,4813.6l-8.5-167.1l53.6,6.4l13.1,8.7l33.4,27l-1.7-0.1l75.3,62.3h-0.2l94.2,71.9l-9.6,4.7
				c-0.2,0.1-0.3,0.2-0.4,0.2c0,0.1,0,0.2,0,0.4l0.4,6.6l-219.6,9.4L2570.7,4813.6z"/>
		</g>
		<g>
			<path class="st0" d="M4291,7275.9c-33.3-71.3-92.4-112.2-154.9-155.6c-22.6-15.7-46-31.9-67.8-49.5
				c-41-33.2-76.9-73.6-111.6-112.6c-15.4-17.3-31.2-35.1-47.3-52.1l-0.2-0.2l-0.2-0.3c-11.6-15-23.7-22.3-37.1-22.3
				c-10.3,0-21.7,4.5-33.8,13.3l-2,1.5l-24.1-2.5l-1.7-95.1c-0.3-3,1.7-5.1,2.5-5.9l8.2-8.5l4.7,4.2c24.1,21.4,48.7,43,72.4,63.9
				c54.7,48,111.2,97.7,165.3,148.1c8.1,7.6,16.3,15.4,24.2,22.9c61.8,59,120.1,114.7,210.2,121.5l14.7,1.1l-10.6,10.2
				c-21.7,20.7-14.3,40.9-5.8,64.3c6.2,16.9,12.5,34.5,7.2,52.7l-4.9,16.7L4291,7275.9z"/>
		</g>
		<g>
			<path class="st0" d="M3258.6,5542.4c-5.3-10.4-2.7-23.2-0.1-35.6c2.4-11.8,4.7-22.9-0.3-29c-4-4.9-13.1-7.3-27.1-7.3
				c-0.6,0-1.2,0-1.8,0h-2.9l-2-2.1c-2.9-3-6-6.1-9-8.9l-1.6-1.5l-0.4-2.2c-7.7-48.9-11.3-99.1-14.8-147.7
				c-7.2-100.6-14.7-204.6-59.5-300.3c-6.4-13.7-8.5-29-10.5-43.9c-0.9-6.6-1.8-13.3-3.1-19.7l-1.6-8l25.8,0.5l1.8,3.3
				c27,48,46.8,98.3,60.7,153.8c12.7,50.6,20,104.4,22.4,164.3c1.7,41.6,15,84,27.9,124.9c4.9,15.6,10,31.7,14.4,47.7
				c1.9,7,4.5,14.1,7.1,21.1c10.8,29.6,23,63.1-15.7,92.8l-6.3,4.8L3258.6,5542.4z"/>
		</g>
		<g>
			<path class="st0" d="M2417,4451.7c-0.5,0-1,0-1.5-0.1c-47.2-5.5-95.4-11.8-142-17.9c-12.7-1.7-25.5-3.3-38.3-5l-6-0.8l8.1-172
				l12.7-2l42,109.9l156.2,72.9l-12,6.1c-1.5,0.7-3.1,1.8-4.8,3C2427.2,4448.6,2422.4,4451.7,2417,4451.7z"/>
		</g>
		<g>
			<polygon class="st0" points="3397.1,2212.9 3457.3,2165.1 3621.2,2204.6 3665.9,2259.4 			"/>
		</g>
		<g>
			<path class="st0" d="M3254.4,5945.9c-63.2-53.4-73.1-125.8-82.7-195.7c-6-43.9-12.3-89.3-31.9-128.6l-3.7-7.4l8.1-1.9
				c2.5-0.6,5.7-1.3,8.8-2.1c14-3.3,14.1-3.3,15.2-3.3h5.1l1.3,5c5.6,22,10.8,44.5,15.8,66.2c8.8,38,17.8,77.3,29.4,115
				c7.3,23.9,19.8,47,31.8,69.4c5.5,10.2,11.2,20.8,16.4,31.4l0.2,0.5l11.3,37l-20.6,18.5L3254.4,5945.9z"/>
		</g>
		<g>
			<path class="st0" d="M4108.6,933.8l8.4,6.9c16.1,13.1,33,19.5,51.6,19.5c17.4,0,36.2-5.4,59.3-17l1.4-0.7h61.7l4.3,22.6
				l-48.2,15.6l-168.3,99.5L4108.6,933.8z"/>
		</g>
		<g>
			<path class="st0" d="M4182.8,6600.5l6.8-4.3c19-12,13.6-20.9,4.6-35.6c-5.6-9.2-12-19.6-9.7-31l1.2-6l6.1,0.8
				c5.1,0.7,10.2,1.5,15.1,2.2c11.4,1.8,22.2,3.5,33,3.6h0.7c10.9,0,21.6-1.5,33-3.1c5-0.7,10.2-1.4,15.4-2l10.2-1.1l-22.3,67.2
				l-53.2,52L4182.8,6600.5z"/>
		</g>
		<g>
			<path class="st0" d="M3017.9,2884.4l-0.4-2.9c-2.6-17.7-5.4-35.7-8.1-53.1c-6.7-43.4-13.7-88.4-18.4-132.8
				c-1.9-18.1,0.7-36.5,3.2-54.4c1.1-7.9,2.3-16,3-23.9l1.2-12.8l9.7,8.4c1.2,1,2.9,2.2,4.6,3.3c4.9,3.3,10.5,7.1,11.3,13.2
				c8.9,73.5,17.2,148.3,25.3,220.6c1.7,15.2,3.4,30.4,5.1,45.5l1.6,14L3017.9,2884.4z"/>
		</g>
		<g>
			<path class="st1" d="M4240,522.2l-14.2,14.5l-3.3-10.3c-0.1-0.3-0.3-0.8-0.5-1.2c-0.9-2.3-2.9-7.1,1.3-10.4
				c13.3-10.3,26.9-20.7,40.1-30.7l8-6.1l20.3,4.3l49.5,41.6l-59.5,42L4240,522.2z"/>
		</g>
		<g>
			<path class="st0" d="M2561.1,4640.8c-2.2-1.7-4.7-3.4-7.3-5.2c-6.5-4.3-13.3-8.7-16.7-15.8c-4.4-8.8-8.5-17.9-12.6-26.7
				c-19.2-41.7-37.3-81.1-77.8-106.4c-6.8-4.2-5.5-14.4-4.1-26.1c0.5-3.9,1-7.9,1-11l0.2-10.7l9.5,5.1
				c36.5,19.6,63.9,46.1,83.8,80.9c17.2,30.1,28.6,66.1,34.6,110l2.3,16.5L2561.1,4640.8z"/>
		</g>
		<g>
			<path class="st0" d="M3153.1,2324.7c31.3-32.2,66-58.2,103.1-77.4c37.8-19.6,79.3-32.6,123.1-38.7l4.7,11.9
				c-70.3,49.8-140.4,96.2-224.8,115.2l-21.6,4.9L3153.1,2324.7z"/>
		</g>
		<g>
			<path class="st0" d="M3973.7,6470l-27.3-33.9l0.3-0.3l-17.5-27.4l4.4-3.7c27.4-23.2,40.3-55.2,39.2-97.9l12.7-2.5l55.6,148.8
				l-16.8,29.6l-32.7,30.7L3973.7,6470z"/>
		</g>
		<g>
			<polygon class="st0" points="1850.1,4064.4 1907.3,4012.1 1957,4061.5 1906.6,4103.7 			"/>
		</g>
		<g>
			<path class="st0" d="M4189.9,1267.8l-168.8-44l23.7-47.1l177,54.6l20.7,30.4l-4,3.8c-2.5,2.4-5.1,5-7.5,7.6l-2.5,2.7
				L4189.9,1267.8z"/>
		</g>
		<g>
			<polygon class="st1" points="4536.3,1769.8 4579.8,1736 4617.5,1780.8 4575.1,1827.8 			"/>
		</g>
		<g>
			<path class="st0" d="M4291.5,7158.2l-84.3-155.1l25.8-5.1l2.3,1.8c2.3,1.8,4.9,2.6,7.8,2.7l3.5,0.1l1.3,2.1l11.3,11.2l-4.2-0.1
				c5.8,9.1,11.7,18.2,17.4,27.1c20.3,31.5,41.2,64,61,96.6c6.8,11.2,11.6,23.6,16.3,35.5c2.1,5.3,4.2,10.7,6.4,15.9l9.6,22.4
				L4291.5,7158.2z"/>
		</g>
		<g>
			<path class="st0" d="M2944,5543.2l-13.3-29.8l-59.3-153.5l42.7,2.6l1.4,4.2c2.9,8.4,5.4,15.9,7.7,22.7
				c4.5,13.2,8.1,23.7,11.8,34.2c10.6,30.1,21.4,60.8,31.8,90.4c4.2,11.9,18.3,51.9,18.3,51.9L2944,5543.2z"/>
		</g>
		<g>
			<path class="st0" d="M983,769.6c-2.1-1.9-4.5-3.2-7.2-4l-4.5-1.4l-0.2-4.7c-1.5-45.5-4.5-70.1-17.7-86.5
				c-13.3-16.5-38-26.2-84.9-40.4l-9.4-2.9l20.2-24.4l99.1,30.7l14.8,15.2l26.7,54.4l-11.6,61.2l-22.8,5L983,769.6z"/>
		</g>
		<g>
			<polygon class="st0" points="81.2,1240.2 123.9,1190.4 165.8,1237.2 127.3,1293.5 			"/>
		</g>
		<g>
			<polygon class="st1" points="3872.4,4546.1 3921.4,4477.6 3941.6,4521.6 3931.3,4609.7 			"/>
		</g>
		<g>
			<path class="st0" d="M4283.7,7269.1l11-2.8c8-2,15.7-3.1,22.8-3.1c21.3,0,38.8,9.1,52,27.2c12.7,17.3,21.5,42.5,26.9,77.1
				l3.2,20.3L4283.7,7269.1z"/>
		</g>
		<g>
			<path class="st0" d="M3203.7,2986.6l3.6-20.8l4.8-0.6c8.4-1.1,17-2.3,25.2-3.5c26.7-3.7,54.3-7.5,81.6-9.8c0.3,0,0.5,0,0.8,0
				c6.7,0,11,6.6,15.9,14.3c1.6,2.5,3.2,5,4.7,6.8l5.4,6.7l-7.9,3.4c-2.8,1.2-5.7,1.8-8.6,1.8c-0.2,0-0.4,0-0.7,0l-115.5,36.3
				L3203.7,2986.6z"/>
		</g>
		<g>
			<path class="st0" d="M2904.3,5796.3c-2.7-2.7-5.3-5.4-8-8.1l-2.9-2.9l13.3-37.4l84.5-77.2l8-10.7l5.8,7l4.6,4.6l-8.7,7.9
				l-91.4,122.2L2904.3,5796.3z"/>
		</g>
		<g>
			<polygon class="st0" points="3060.9,2435.7 3156.1,2319.6 3167.8,2391.5 3069.2,2445.6 			"/>
		</g>
		<g>
			<polygon class="st1" points="929.4,3244.1 1036.6,3231.6 984.8,3297.8 			"/>
		</g>
		<g>
			<path class="st1" d="M4261.5,3165.2c-2.2-2.1-4.9-4.3-7.7-6.6c-7.6-6.1-15.5-12.3-16.3-21c-0.8-8.4,4.9-15.7,12-25
				c3.1-4.1,6.7-8.7,10-13.9l5.9-9.2l5.3,9.6c3,5.3,6,10,8.7,14.2c6,9.3,10.8,16.7,11.2,25.3c0.4,7.9-6.5,14.1-13.1,20.1
				c-2.4,2.2-4.7,4.3-6.5,6.2l-4.6,5.2L4261.5,3165.2z"/>
		</g>
		<g>
			<path class="st0" d="M3737.6,6140.1l5.3-11.6l54.1,10.9l27.6,16.3l12.5,10.8l11.8,4.3c0.9,0.2,2.2,0.4,4.5,0.8l3.4,0.6l1.4,3.2
				c1.1,2.7,2.9,4.4,5.6,5.5l1.8,0.8l21.7,33l-45,5.9L3737.6,6140.1z"/>
		</g>
		<g>
			<path class="st0" d="M3672.5,6851.8l-25.6-12.4l-9.9-27l2.6-2.9c2.2-2.6,4.6-5.1,6.9-7.6l0.1-0.1l19.4-19.4
				c2.8-2.6,5.6-5.2,8.4-7.7l4.2-3.8l73.7,62.1l-5.8,6.6l-10.4,43.5L3672.5,6851.8z"/>
		</g>
		<g>
			<path class="st0" d="M3404.5,6642.4l-14-17.4l0.4-2.8c0.4-3.1,0.6-6.2,0.4-9.3l-0.6-10.1l73.8,27.8l30.7,14.4v54.3L3404.5,6642.4
				z"/>
		</g>
		<g>
			<path class="st0" d="M3599.6,2843.5c-8.3,0-16.8-10.5-19.2-13.8c-4.9-6.7-6.8-12.3-5.5-16.6c3.6-11.6,15.5-28.7,28.7-30.6
				c1-0.1,2-0.2,3.1-0.2c8.2,0,16.2,4.5,26.3,10.2c5.1,2.9,10.9,6.1,17.4,9.2l10.7,5l-10,6.4c-9.9,6.4-17.6,11.9-23.7,16.3
				c-11.8,8.5-19,13.6-27.4,14C3600,2843.5,3599.8,2843.5,3599.6,2843.5z"/>
		</g>
		<g>
			<path class="st0" d="M1854.6,3631.6c-9.4-43.4,17.8-62.8,41.8-80c8.4-6,16.3-11.7,22.9-18.2l5.6-5.6l24.3,35.5l-92.2,79
				L1854.6,3631.6z"/>
		</g>
		<g>
			<path class="st0" d="M2863.1,5922.5l-6.8-39.4l0.2-41.2l43.3-68.7l5.8,6c2.6,2.7,5.3,5.4,7.9,8.1l2.4,2.4l-4.4,26.2l-1.3,1.4
				c-28.6,30.9-19.8,63.5-10.6,98c2.4,8.9,4.9,18,6.7,27.2l0.7,3.6l-2.6,2.5c-2.6,2.5-5.3,5-8,7.5l-5.4,5L2863.1,5922.5z"/>
		</g>
		<g>
			<path class="st1" d="M655.5,965c-1.4,0-2.7-0.2-3.9-0.6c-10.6-3.6-21.1-18.8-20.5-29.5c0.5-10.1,17.2-22.2,27.3-22.2
				c0.5,0,1,0,1.4,0.1c7.6,0.8,12.9,7.6,19,15.5c2.7,3.5,5.5,7,8.7,10.5l5.7,6.1l-7.3,4.1c-4.1,2.3-7.8,4.8-11.5,7.2
				C667.1,961.1,661.3,965,655.5,965z"/>
		</g>
		<g>
			<path class="st0" d="M4781.1,1177.5l30.6-20.8l2.3,9c0.8,3,1.7,6,2.7,9.2c2.4,7.8,5,15.9,5.2,24.4c0.2,7.7-5.2,14.5-7.5,17.4
				c-0.1,0.2-0.2,0.3-0.3,0.4l-5.5,10.4L4781.1,1177.5z"/>
		</g>
		<g>
			<polygon class="st0" points="1107.9,1965 1073,1935.5 1106.7,1921.4 1180.1,1945.8 1177.2,1973.2 1146.4,1973.2 			"/>
		</g>
		<g>
			<polygon class="st0" points="2587.3,5025.2 2580.3,4996.9 2586.1,4961.8 2648.6,5086.2 2637.5,5093 			"/>
		</g>
		<g>
			<path class="st0" d="M599.9,2419.5c-0.9,0-1.9-0.2-2.7-0.5c-12.4-4.5-24.3-14.7-29.6-25.4c-1.9-3.9-0.8-9,3.7-16.1
				c2.9-4.6,10.4-15.5,17.9-15.5c0.4,0,0.8,0,1.1,0.1c8.7,1.2,16.1,6.5,24.6,12.7c3.6,2.6,7.3,5.3,11.4,7.9l6.6,4.2l-5.3,5.8
				c-3.4,3.7-6.8,8-9.8,11.7C609.9,2414.1,605.6,2419.5,599.9,2419.5z"/>
		</g>
		<g>
			<path class="st1" d="M2074.2,4777.2c-0.4,0-0.9,0-1.3,0c-5.2-0.3-9.3-5.6-11.8-9.9c-3.1-5.4-3.9-9.7-2.2-13
				c2.9-5.9,7.7-10.2,12.4-14.4c1.7-1.5,3.3-2.9,4.7-4.4l4.9-4.9l31.4,34.4l-9.4,3.2c-4.4,1.5-8.1,3-11.3,4.3
				C2084.9,4775.2,2079.7,4777.2,2074.2,4777.2z"/>
		</g>
		<g>
			<path class="st1" d="M3742.4,5175.5c-1.1,0-2.2-0.2-3.3-0.5c-8.8-3-17.5-15.3-16.9-24.1c0.5-9,12.6-19.2,21.3-20.3
				c0.9-0.1,1.8-0.2,2.7-0.2c5.6,0,11.2,2.1,18.9,5c4.5,1.7,9.6,3.6,15.9,5.7l14,4.5l-12.7,7.4c-9.8,5.7-17,10.4-22.2,13.9
				C3751.4,5172.7,3747.1,5175.5,3742.4,5175.5z"/>
		</g>
		<g>
			<path class="st0" d="M3729.1,6881.7l5.5-51.9h2.9c0.3-0.3,7.9-9.1,7.9-9.1l3.7,10.6c2.3,6.5,9.7,9,21.7,12.4
				c10.9,3,23.3,6.5,29.1,17.2c4.1,7.6,4.1,17.3,0,29.7l-1.8,5.6L3729.1,6881.7z"/>
		</g>
		<g>
			<path class="st0" d="M3600.3,4123.6c-3.3-4.6-6.7-8.6-9.6-12.1c-6.9-8.1-12.3-14.6-11.6-22.2c1.2-14,25.6-22.6,25.8-22.7
				c0.8-0.3,1.7-0.4,2.6-0.4c3.6,0,7.8,2.6,12.6,7.6c3.8,4,8.3,10,8,15.7c-0.4,7.3-4.4,13.6-9.4,21.5c-2.2,3.5-4.7,7.5-7.2,12
				l-5,9.1L3600.3,4123.6z"/>
		</g>
		<g>
			<path class="st0" d="M3389.6,6580.5l-24.9-21.1l-0.2-2.8c-0.2-3.9-0.5-7.9-0.9-11.7l-0.6-6l13-2.5c0,0,5.3,0.7,6.7,0.9h1.3
				l56.6,31.6l-9.9,22.2L3389.6,6580.5z"/>
		</g>
		<g>
			
				<rect x="2558.2" y="4840.1" transform="matrix(0.967 -0.2547 0.2547 0.967 -1159.9181 814.4118)" class="st0" width="13.1" height="91.9"/>
		</g>
		<g>
			<polygon class="st0" points="1594.1,3432.5 1640.6,3399.3 1654.2,3417 1622.7,3465.9 			"/>
		</g>
		<g>
			<polygon class="st0" points="3731,7052.6 3784.3,7056.8 3786.6,7074.5 3735.4,7084.8 			"/>
		</g>
		<g>
			
				<rect x="2982.2" y="2539.1" transform="matrix(0.2314 -0.9729 0.9729 0.2314 -155.6171 4894.3081)" class="st0" width="75" height="13.1"/>
		</g>
		<g>
			<polygon class="st0" points="2192,4225.2 2197.9,4213.6 2252.7,4229.8 2249.4,4269 			"/>
		</g>
		<g>
			<path class="st1" d="M1018.8,1473.3c-1.3-1.5-2.8-3-4.5-4.5c-4.2-4.1-9.1-8.8-11.2-15c-1.6-4.6,0.8-9.9,3-13.6
				c1.9-3.2,6-8.5,11.2-9.3c0.8-0.1,1.6-0.2,2.5-0.2c5.1,0,9.9,2,15.6,4.4c2.8,1.2,5.9,2.5,9.5,3.7l8.8,3L1024,1479L1018.8,1473.3z"
				/>
		</g>
		<g>
			<path class="st0" d="M4124.9,5831.6c-1.2-1.5-2.6-3-4.1-4.7c-4.1-4.5-8.4-9.1-10.4-15.2c-1.1-3.4,0-7.5,3.6-12.4
				c2.9-4,7.4-8.8,12.4-8.8c0.4,0,0.7,0,1.1,0.1c6.1,0.9,11.3,3.9,17.9,7.7c2.8,1.6,5.9,3.5,9.6,5.4l8.8,4.6l-34.7,28.5
				L4124.9,5831.6z"/>
		</g>
		<g>
			<path class="st0" d="M4266,6476.9c-6.1,0-17.9-9.6-19-17c-0.9-5.9,1-11.4,3.7-19c1.3-3.6,2.7-7.6,4.1-12.5l3.4-11.6l7.9,9.2
				c3.5,4.1,6.8,7.4,9.7,10.3c6.4,6.4,11,11.1,11.2,17.5c0.3,10.3-13,19.4-17.1,21.9C4268.7,6476.6,4267.4,6476.9,4266,6476.9z"/>
		</g>
		<g>
			<path class="st0" d="M1348.9,3829.9c-2.3-3.7-4.9-7.3-7.2-10.4c-5.9-8.1-10.2-13.9-7.3-19.9c3.4-6.9,9.6-11.7,15.6-16.2
				c2.2-1.7,4.3-3.3,6.2-4.9l6-5.2l4,6.8c1,1.7,2.4,3.6,3.8,5.6c3.9,5.3,8.3,11.3,7.9,18.1c-0.4,6.5-5,11.6-10.4,17.5
				c-2.4,2.6-5.1,5.6-7.8,9.1l-5.8,7.4L1348.9,3829.9z"/>
		</g>
		<g>
			<polygon class="st0" points="2199.6,5309.9 2233.2,5304 2239.5,5349.9 2214.8,5356.6 			"/>
		</g>
		<g>
			<path class="st0" d="M3044.1,2502c-2.8,0-6-0.2-9.5-0.6l-9.5-1.1l25.4-48.1l12.4,3.5c-0.2,3.3,1,8,2.1,12.6
				c2.2,8.9,4.8,19-1,26.4C3060.2,2499.6,3053.7,2502,3044.1,2502z"/>
		</g>
		<g>
			<path class="st0" d="M3357.1,2494.2c-5.8-0.1-9.9-4.6-13.6-8.5c-1.2-1.3-2.4-2.5-3.4-3.4l-5.2-4.5l22.3-23.8l21.8,23.7l-4.9,4.4
				c-1,0.9-2.1,2.1-3.3,3.5c-3.6,4-7.7,8.6-13.4,8.6H3357.1z"/>
		</g>
		<g>
			<path class="st0" d="M458.9,1607.4c-1.1,0-2.2-0.2-3.2-0.5c-4.7-1.6-8.1-6.3-9.6-8.9c-1.6-2.8-4.1-8.1-2.8-13
				c1.5-5.7,7-8.8,11.9-11.5c1.6-0.9,3.1-1.8,4.3-2.6l5.4-3.8l19.7,27.9l-6.7,3.4c-2.1,1.1-4.1,2.4-6.1,3.6
				C467.2,1605,463.3,1607.4,458.9,1607.4z"/>
		</g>
		<g>
			<path class="st0" d="M3963,1455.4c-1.4,0-2.8-0.4-4-1.1c-6.6-4-12.5-11.1-16.3-19.5c-2.3-5,2.1-9,3.5-10.2c1.6-1.4,3.7-3.1,6.1-5
				c2.5-2,5.4-4.3,8.1-6.6l6.2-5.3l3.9,7.1c1.3,2.5,2.8,4.7,4.1,6.9c3.4,5.5,6.7,10.7,7.4,16.8c0.4,3.8-2.1,6.7-3,7.7
				C3976.7,1448.8,3968.6,1455.4,3963,1455.4z"/>
		</g>
		<g>
			<path class="st0" d="M3616.4,5720.8c-1-0.9-2.1-1.9-3.3-2.8c-3.3-2.8-7-5.9-9.3-10.2c-1.6-3.1-1.1-6.9,1.8-11.6
				c2.9-5,6.2-7.5,9.8-7.5h0.3c4.6,0,8.7,1.6,13.5,3.6c2,0.8,4,1.6,6.3,2.4l8.8,3.1l-22.7,28L3616.4,5720.8z"/>
		</g>
		<g>
			<path class="st0" d="M3859.4,4961.3l6.8-2.7c1.2-0.5,2.6-1.2,4.2-2c3.7-1.9,7.4-3.9,11.5-3.9c1.4,0,2.7,0.2,3.9,0.7
				c5.2,2,8,7,10.7,11.7c1.1,1.9,2.1,3.8,3.4,5.5l4.2,6.1l-28.6,15.3L3859.4,4961.3z"/>
		</g>
		<g>
			<path class="st0" d="M4218.6,4001.9c-6,0-13.2-4.7-16.3-8c-2.4-2.5-3.5-5.1-3.4-7.7c0.3-6.5,2.9-12.2,5.4-17.8
				c0.9-2,1.8-3.9,2.5-5.8l2.4-6.3l28.5,12l15.3,25.2l-8.4,2.3c-2.2,0.6-4.4,1.3-6.8,2.1c-6,2-12.3,4.1-19,4.1L4218.6,4001.9z"/>
		</g>
		<g>
			<path class="st0" d="M1129.5,2090.7l23.9-26.8l4.9,5.4c0.9,1,2.1,2,3.4,3.2c3.8,3.4,8.2,7.3,8.6,12.9c0.5,5.5-3.1,10-6.5,14.3
				c-1.3,1.6-2.6,3.3-3.7,4.9l-3.8,5.8L1129.5,2090.7z"/>
		</g>
		<g>
			<path class="st0" d="M1472.3,2734.5c-1.7-2.3-3.6-4.5-5.4-6.7c-5.2-6.1-9.3-11-6.6-16.4c2.9-5.7,7.6-9.8,12.2-13.7
				c1.6-1.4,3.2-2.7,4.6-4.1l6.4-6.2l4,7.9c0.7,1.4,1.6,2.8,2.6,4.4c2.8,4.4,5.9,9.3,5.6,15.1c-0.3,5.5-4,9.7-8,14
				c-1.6,1.8-3.3,3.7-4.9,5.8l-5.3,7L1472.3,2734.5z"/>
		</g>
		<g>
			<path class="st0" d="M545.2,2344.1c-2.4-6.6-4.5-11.6-6.2-15.6c-3.3-7.9-5.3-12.7-3.3-17.6c3.2-7.6,15.1-9.7,20.1-10.2
				c0.2,0,0.5,0,0.8,0c3.8,0,6.3,3,7.2,4c0.2,0.3,6.1,7.4,5,13.7c-0.9,4.9-3,9.1-6.1,15.4c-1.6,3.1-3.3,6.6-5.4,11l-6.7,14.5
				L545.2,2344.1z"/>
		</g>
		<g>
			<path class="st0" d="M3610.8,3432.8c-5.9,0-10-5.1-13.5-9.6c-1.2-1.5-2.3-2.9-3.3-3.9l-4.6-4.7l4.8-4.6c1.1-1.1,2.3-2.4,3.5-3.7
				c3.4-3.8,7.3-8.2,12.8-10.1c0.8-0.3,1.7-0.4,2.6-0.4c4.5,0,7.8,3.5,12.4,8.4c1.6,1.8,3.4,3.6,5,5.1l5.4,5l-5.6,4.8
				c-1.8,1.5-3.5,3.3-5.1,5c-4.4,4.5-8.5,8.8-14.3,8.8L3610.8,3432.8z"/>
		</g>
		<g>
			<path class="st0" d="M4675.6,2620.4c-0.5,0-1,0-1.5-0.1c-5.5-0.6-9.8-6.4-11.4-8.8c-2.9-4.4-3.8-8.3-2.7-11.6
				c2.3-7.2,11-14.2,18.2-14.8c0.4,0,0.8,0,1.3,0c4.9,0,9.2,2,15.2,4.8c3,1.4,6.5,3,10.7,4.7l13.8,5.5l-13.3,6.5
				c-6.5,3.2-11.2,5.8-15,7.9C4684,2618.3,4680.2,2620.4,4675.6,2620.4z"/>
		</g>
		<g>
			<path class="st0" d="M2497.1,5989.1c-0.8-0.3-1.8-0.7-3-1.1c-3.9-1.3-8.8-2.8-10.6-7.6c-1.8-4.7,0.7-9.1,2.6-12.7
				c0.6-1,1.1-2,1.4-2.8l2.6-6.2l6.1,2.7c3.6,1.6,7.1,3.2,10.7,4.8l5.9,2.6l-2.5,5.9c-1.5,3.6-3,7.2-4.6,10.8l-2.6,6.2
				L2497.1,5989.1z"/>
		</g>
		<g>
			<polygon class="st0" points="4264.8,490 4278.7,441.3 4298.9,497.3 			"/>
		</g>
		<g>
			<polygon class="st0" points="3248,5941.6 3270.9,5921.1 3294.2,5933.4 3299.4,5975.8 			"/>
		</g>
		<g>
			<path class="st0" d="M732.2,904.2c-0.7-0.4-1.6-0.8-2.6-1.2c-3.4-1.4-7.5-3.1-9.5-7.3c-2-4.4-0.1-8.7,1.5-12.1
				c0.4-1,0.8-1.9,1.1-2.6l2.4-7.3l6.9,3.5c0.7,0.4,1.6,0.7,2.7,1.1c3.4,1.4,7.7,3.1,9.7,7.3c2,4.4,0,8.7-1.6,12.2
				c-0.5,1-0.9,1.9-1.1,2.6l-2.5,7.4L732.2,904.2z"/>
		</g>
		<g>
			<path class="st0" d="M1215.6,1048.1c-3.6-0.7-7.1-1.7-10.4-3.2l-5-2.3l10.6-42.6l38.3,23.1l-30.5,25.6L1215.6,1048.1z"/>
		</g>
		<g>
			<path class="st0" d="M3536.2,4429.8c-2.7-2.1-5.4-4.2-8.1-6.3l-9.5-7.4l11.2-4c0.9-0.3,2-0.8,3.1-1.4c2.9-1.4,6.3-3,10-3
				c0.7,0,1.5,0.1,2.2,0.2c4.7,0.8,7.6,4.6,10,7.7c0.7,1,1.4,1.8,2,2.5l8.6,9.1l-12.4,2c-4,0.6-8.1,1.3-12.1,2l-2.8,0.5
				L3536.2,4429.8z"/>
		</g>
		<g>
			<path class="st0" d="M4921.1,1052.4c-0.7-1.2-1.5-2.4-2.4-3.7c-2.4-3.5-5.1-7.5-6.3-12.2c-1.1-4.1,1.7-7.7,2.6-8.9
				c1.6-2.1,5.9-7,10.6-7c0.7,0,1.5,0.1,2.2,0.3c4.4,1.4,8,3.8,12.5,7c1.8,1.2,3.8,2.6,6.1,4.1l8.2,5.3l-29.7,21.1L4921.1,1052.4z"
				/>
		</g>
		<g>
			<path class="st0" d="M1571.3,4632.3c-1.6,0-3.2-0.3-4.6-1c-6.1-2.9-8.4-10.7-9.8-18c-0.2-1.2-0.3-3.6,1.6-5.9
				c2.2-2.7,9-6.6,13.8-6.6c1.2,0,2.2,0.2,3.2,0.6c4.3,1.7,7.2,4.7,11,8.6c1.6,1.6,3.4,3.5,5.5,5.4l8.3,7.7l-10.8,3.4
				c-2.8,0.9-5.3,1.9-7.6,2.9C1578,4631,1574.7,4632.3,1571.3,4632.3z"/>
		</g>
		<g>
			<path class="st0" d="M4202.4,6125.2c-3,0-5.6-1.8-8.4-5.7c-3.3-4.7-4.4-8.7-3.3-12c1.5-4.4,4.5-7.8,7.8-11.9
				c1.4-1.7,3.1-3.6,4.7-5.8l6.7-8.7l4.5,10c1.2,2.6,2.5,5,3.7,7.1c3,5.5,5.6,10.2,4,15.4c-1.6,5.3-7.6,9-18.3,11.4
				C4203.4,6125.1,4202.9,6125.2,4202.4,6125.2z"/>
		</g>
		<g>
			<polygon class="st0" points="1275.2,2395.9 1292.6,2373.5 1304.1,2379.1 1299.3,2398.9 1283,2406 			"/>
		</g>
		<g>
			<polygon class="st0" points="2568.7,4957.9 2569.3,4929.3 2582.2,4927.8 2596.1,4981.7 2584,4986.5 			"/>
		</g>
		<g>
			<path class="st0" d="M3612.9,6799.3l3.1-21.9l30.4-6l2.5,2.6c2.3,2.3,4.5,4.7,6.8,6.9l1.9,1.9l0.3,26.2l-1.8,1.9
				c-2.2,2.4-4.4,4.8-6.6,7.2l-3.9,4.5L3612.9,6799.3z"/>
		</g>
		<g>
			<path class="st0" d="M3800.1,3680.6l23.1-27.1l5,5.6c0.9,1,1.9,2,3,3c3,3,6.5,6.3,8.2,10.9c1.8,4.8-0.8,9.3-2.9,12.9
				c-0.6,1-1.2,2.1-1.6,2.9l-2.7,6L3800.1,3680.6z"/>
		</g>
		<g>
			<path class="st0" d="M3040.7,6651.2c-0.2-0.2-0.7-0.6-1.2-0.9c-2.2-1.6-5.9-4.3-5.1-9c0.5-3.2,1.7-6.2,2.8-9c0.4-1,0.8-2,1.2-3.1
				l3.7-10.3l7.3,8.1c0.5,0.6,1.3,1.2,2,2c2.6,2.4,5.9,5.4,5.7,9.9c-0.2,4.3-3.2,7.4-5.3,9.6c-0.6,0.7-1.2,1.3-1.6,1.8l-4.3,5.5
				L3040.7,6651.2z"/>
		</g>
		<g>
			<path class="st0" d="M1057.8,2547.4c-0.7-0.8-1.5-1.6-2.4-2.4c-2.8-2.6-5.9-5.6-7.2-9.9c-1.5-5.1,2.4-9,5.5-12.2
				c0.8-0.8,1.7-1.7,2.2-2.3l5.3-6.5l5,6.7c2.2,2.9,4.5,5.9,6.7,9l2.4,3.3l-1.9,3.6c-1.6,3.1-3.2,6.2-4.7,9.2l-4.4,8.7
				L1057.8,2547.4z"/>
		</g>
		<g>
			<polygon class="st1" points="695.1,485.4 695.2,466.9 727.8,465.3 727.6,487.6 			"/>
		</g>
		<g>
			<path class="st0" d="M4747.4,1130c-0.4-0.8-0.7-1.7-1.2-2.5c-1.2-2.5-2.5-5.4-3.2-8.5c-1-4.5,2.3-7.4,4.3-9.2
				c0.4-0.3,0.8-0.7,1-0.9l6.8-7.4l10.5,23.7l-14.5,13.3L4747.4,1130z"/>
		</g>
		<g>
			<path class="st0" d="M3234.4,5557.8c-2.2-2.6-4.2-5.3-6.2-8l-5.5-8l50.2-11.7l-1.3,9.5c-0.6,4-1.1,7.8-1.7,11.4l-0.7,4.8
				l-4.8,0.7c-8,1.2-16,2.3-24.1,3.5l-3.6,0.5L3234.4,5557.8z"/>
		</g>
		<g>
			<path class="st0" d="M4212.2,1273.9l9.3-9.9c2.6-2.7,5.2-5.4,7.9-8l5.4-5.2l19.6,26.7L4212.2,1273.9z"/>
		</g>
		<g>
			
				<rect x="4349.9" y="7189.7" transform="matrix(0.7058 -0.7084 0.7084 0.7058 -3818.5435 5204.2007)" class="st0" width="13.1" height="19.7"/>
		</g>
		<g>
			
				<rect x="4366.6" y="7200.8" transform="matrix(0.5597 -0.8287 0.8287 0.5597 -4052.0918 6800.0693)" class="st0" width="13.1" height="24.9"/>
		</g>
		<g>
			<path class="st0" d="M2994.4,2470.7c-3.9-11.8-8.9-24-13.7-35.8c-11.2-27.2-22.7-55.3-22.6-83.5c0.3-59.5,15.1-120.5,28.8-172.9
				c6.2-23.6,5.7-39.5-1.4-48.8c-6.7-8.7-20.7-13-42.6-13c-0.8,0-1.7,0-2.5,0h-0.5c-8.3,0-16-3.2-22.2-5.7c-2.2-0.9-4.2-1.7-5.8-2.2
				l-3.9-1.2l-0.6-4.1c-2.2-13.6-4.5-26.8-6.8-39.6c-5.1-28.3-9.8-55-11.8-82.1c-0.6-7.8-1.4-15.7-2.3-23.4
				c-4.4-40.3-9-81.9,29.1-121.5c21.5-22.2,35.9-52.7,49.9-82.2c5.9-12.3,11.9-25,18.4-37.2l-8.1-14.2c-16.7,3.5-34.8,5.6-52.3,7.7
				c-41.4,5-84.3,10.1-106.7,32.7c-18.8,18.9-37.3,32.2-56.8,40.9c-18.3,8.1-37.6,12.1-58.9,12.1c-15.6,0-32.8-2.1-52.6-6.6
				c-7.1-1.6-13.1-2.4-18.5-2.4c-19.4,0-30.1,10.2-37,35.1c-5.9,21.4-15.1,42.1-24.9,64.1c-4.7,10.5-9.5,21.4-14.4,33.1l-2.9,7
				l-6.5-3.8c-8-4.7-15.4-8.5-22.6-12.1c-14.1-7.2-26.2-13.4-35.1-23.1c-18-19.9-31.9-28-47.9-28c-10,0-21.3,3.2-34.6,9.7
				c-10.4,5.1-19.2,7.5-26.9,7.5c-8.4,0-15.5-3.1-20.6-8.9c-8.9-10.2-11.5-28.6-7.7-54.6l0.6-4.1l69.5-21.7
				c-5.6-3.5-10.6-6.8-15.3-9.9c-13.5-8.9-23.3-15.3-32.8-16.7c-11-1.6-23-2.3-38-2.3c-8.9,0-18,0.3-26.8,0.5
				c-8.7,0.2-17.7,0.5-26.6,0.5c-44.7,0.1-70,6.6-84.6,21.9c-13.8,14.5-19.2,38.9-17.4,79c0.7,14.8,4.7,29.3,8.9,44.7
				c3.4,12.3,6.8,24.9,8.5,37.8c2.6,20.4,3,41.3,3.4,61.4c0.2,8.7,0.3,17.7,0.7,26.5l0.4,10.2l-9.4-3.8c-7.6-3.1-15.4-5.9-22.9-8.7
				c-46.2-16.8-94-34.1-95.4-111.4c-0.9-49.8-42.8-88.7-99.7-92.5c-7.1-0.5-14.3-1-21.4-1.4c-44.2-2.9-89.9-5.9-134.6-11.4
				c-32.7-4-53.3-12.4-61-25c-25.4-41.2-63.3-49.1-106.5-54.7l-1.1-0.1l-24.7-12l-114.8-8.6l2.2-7.8
				c33.8-117.2-6.4-219.5-50.5-304.2l-45.8-41.1c-2.5-2.2-4.5-4.9-5.7-8l-0.7-1.7l0.3-1.8c3.4-19.9-9.9-51.1-33.9-79.6
				c-21.9-26-47.4-42.7-65.1-42.7c-0.6,0-1.2,0-1.8,0.1c-2.3,0.1-5.5,2.3-8.6,4.5c-1.9,1.3-3.9,2.7-6,3.8l-1.6,0.9l-1.9-0.1
				c-6.6-0.3-11.7-3.9-14.4-9.9l-0.6-1.3l-0.1-29.9l4.8-1.6l-0.9-0.5c-0.3,0-0.6,0-1,0c-3.6,0-7.1-0.1-10.7-0.2l-3.6-0.1l-36.7-62.1
				l1.5-3.2c13.9-29.2,24-50.3,33.5-64.1c10.8-15.6,21.1-22.3,34.6-22.3c17.9,0,39.4,12.1,78.5,33.9l9.9,5.5l-9.8,5.8
				c-5.2,3.1-10.3,5.8-15.2,8.5c-10.6,5.7-19.7,10.6-26.9,17.4c-6,5.7-10.2,13.8-15,23.1c-1.4,2.8-2.9,5.6-4.5,8.5
				c9.6,5,18.5,7.6,26.5,7.6c19.3,0,34.7-14.9,47.1-45.6c11.2-27.8,28.5-46.1,52.8-55.9c21.1-8.5,44.9-9.7,67.8-10.8
				c4.4-0.2,8.9-0.4,13.4-0.7c4.8-0.3,9.8-0.4,14.8-0.4c22.4,0,45.1,2.9,67.1,5.6c11.1,1.4,22.6,2.8,33.9,3.9l22.9-11.5
				c20.2-31.3,26.2-49,21-60.9c-8.4-19.1-50.2-29.5-114.9-40.1l-4.5-0.7l-0.9-4.4c-0.2-1.1-0.6-2.5-1-4c-1.7-6.2-3.2-12.1,2-15
				c62.4-34.6,97-78.3,108.8-137.4c1.5-7.6,10.8-10,21.5-12.9c3.7-1,7.5-2,10.4-3.1l5.3-2l2.8,4.9c1.7,3.1,3.4,5.8,4.9,8.1
				c3,4.8,5.4,8.7,6.8,13.2c2.5,8,4.3,17.8,6,27.2c1.7,9.1,3.4,18.5,5.7,25.5c2.8,8.8,5.2,9.8,5.5,9.9c4.4,1.4,8.2,2.1,11.3,2.1
				c8.3,0,10.2-5,12.2-22.1c1.2-10.3,2.5-21,9.2-28.3c7.7-8.3,18.8-12.4,29.5-16.3c4.6-1.7,8.9-3.3,12.9-5.2l17.7-8.3l-10.7,20.2
				l-9.3,44.4c10.8,5.8,20.7,11,30,16c21.9,11.6,40.7,21.7,59.2,31.8c7.6,4.2,15.2,9.7,22.6,15.1c13.1,9.5,26.7,19.4,37.8,19.4
				c0.5,0,1.1,0,1.6-0.1c63.2-5.6,132-17,210.5-34.8c33.2-7.5,65.3-19.3,96.4-30.8c12.1-4.4,23.6-8.7,34.9-12.6v-83.3
				c-0.9-1-1.5-2.3-1.5-4.2v-7l53.9,3.2l0.9,2.6l11.1,11.3l-7.4-0.4l10.5,30.8c0.9-0.9,1.9-1.9,2.8-2.8c8.5-8.5,17.2-17.3,25-26.4
				c1.1-1.3,1.7-4.1,2.4-6.9c0.7-3.1,1.5-6.6,3.2-9.9c6-11.1,12.5-22.2,18.8-32.8c0.7-1.1,1.3-2.3,2-3.4l-41.1-1.9l-0.1,6.9l-9-7.4
				l-4.1-0.2v-3.1l-13-10.6l13.3,0.6c3.1-42.2,29.8-51.3,52.2-51.3c8.2,0,17.5,1.2,27.7,3.6c17.9,4.1,34.9,12,51.4,19.7
				c5.6,2.6,11.4,5.3,17.1,7.8c12.4-17.1,29.3-30,50.1-38.4c19.8-8,43.3-12.1,70-12.1c63.1,0,127,22.1,159.4,35.3
				c23.3,9.5,48.5,15.7,73,21.7c18.3,4.5,37.1,9.1,55.3,15.1c25.3,8.3,49.6,18.6,75.3,29.4c10.2,4.3,20.8,8.7,31.5,13.1
				c30.1-24.1,47.3-40.1,51.4-54.3c3.4-11.8-1-24-18.2-48.4c-21.9,11.5-44.2,23.1-74.2,38.7l-12.1,6.3l2.2-13.1
				c5.8-34.2,11.2-53.5,18.4-66.5c8.4-15.1,20.1-22.2,36.6-22.2c10.9,0,24,2.9,44,9.6c21,7.1,41.9,15.6,62.2,23.8
				c29.1,11.8,59.1,24,89.5,32c33.6,8.8,69.2,13.3,110.4,18.5c20.9,2.6,42.6,5.4,67,9l20.2,3l-147.2,75.6c6.5,4,13,8,19.3,11.9
				c54.7,33.9,106.3,65.9,171.1,65.9c11,0,22.3-0.9,33.6-2.7l2.8-0.4l2.2,1.7c19.5,14.8,19.6,39.8,19.7,64
				c0.2,34.7,0.3,67.4,50.5,78.9l12.5,2.9l-9.7,8.5c-24.4,21.3-35.3,38.7-32.5,51.6c2.8,12.9,20.2,24.3,51.9,34
				c7.8,2.4,14.3,11.2,19.4,26.3c3.9,11.5,6.4,25.3,6.5,36.1c0,2.4,0,4.8,0,7.1c0,27.6,0,41.4,33.9,43.3
				c9.7,0.5,19.4,12.9,24.3,20.2c2.7,4.1,16.1,25.1,11.7,37.8c-9.2,26.5-23.9,51.2-38.1,75.1c-6.3,10.5-12.7,21.4-18.6,32.3
				c-7.4,13.7-14.5,28-21.3,41.9c-3.1,6.3-6.3,12.8-9.5,19.1l-0.4,0.8l-0.6,0.6c-23.4,26.4-50,39.8-79,39.8
				c-16.2,0-33.5-4.2-51.2-12.6l-4.2-2l3.6-33.7l3.3-1.6c6.6-3.2,9.9-5.4,11.6-6.7c-2-1.1-5-2.4-7.3-3.3c-3-1.3-6.3-2.7-9.5-4.4
				c-24.2-12.6-54.3-28.3-78.9-48.9c-14.9-12.5-28.7-27.4-42.1-41.9c-24.5-26.4-47.6-51.3-76.2-62.1
				c-40.2-15.1-70.2-33.8-103.6-64.4c-16-14.7-44.3-29.8-63.9-29.8c-3,0-5.7,0.4-8,1.1c-11.6,3.5-22.2,5.2-32.6,5.2
				c-28,0-50.2-12.6-74.8-31.5c-26.2-20-60.5-31-96.7-31c-33.6,0-67.7,9.5-96.1,26.8c-12.9,7.9-27.2,12.7-41.1,17.4
				c-6.2,2.1-12.1,4.1-17.7,6.3l-5.1,2l-30.2-49.7c-4.4,2-9.1,4.3-13.7,6.5c-14,6.8-22.8,10.9-29,10.9c-3.7,0-6-1.5-7.2-2.8
				c-17.4-18.5-36-27.1-58.3-27.1c-18.6,0-38.1,6-56.9,11.9c-18.2,5.6-37,11.5-55.7,12.2c-14.3,0.6-35.6,12.4-37.1,18.9
				c-7.3,32-20.5,47.5-40.2,47.5c-13.5,0-27.9-7.5-41.8-14.8c-3-1.6-6.1-3.2-9.1-4.7c-1.6,3.6-3.2,7.2-4.7,10.8
				c-5.6,12.7-10.8,24.8-17,36.7c-5.1,10-10.9,19.7-16.4,29.1c-4.2,7-8.5,14.3-12.4,21.5c-7.9,14.4-16.2,21.4-25.6,21.4
				c-10.3,0-18.3-8.2-26.1-16.1c-0.7-0.7-1.4-1.5-2.1-2.2l-21.6,31.2c1.1,27.5,4.6,44.5,11.3,54.9c6.6,10.2,16.9,14.6,34.3,14.6
				c9.7,0,21.9-1.4,37.4-4.4c44-8.4,88.3-15.1,135.1-22.2c21.2-3.2,43.2-6.5,65.7-10.1l13.7-2.2l-46,79l-10.6,12.6l-8.7,2.1
				l-20.6-1.8v-6c0-2.1,0-4.2,0-6.3h-2.1l-10.3,20.5l10.7,21.2l23.2,11.4h0.4c34.9,0,70.4-0.1,104.7-0.2s69.8-0.2,104.7-0.2
				c86.7,0,152.9,0.6,214.6,1.8c22.7,0.5,45.5,14.6,65.7,27.1c2.4,1.5,4.7,2.9,7,4.3c7.4,4.5,14.7,9.4,21.8,14.2
				c24.2,16.3,47.1,31.6,72.1,31.6c16.8,0,33.3-7,50.6-21.4c8.6-7.2,20.4-9.2,31.8-11.1c4.8-0.8,9.4-1.6,13.6-2.7l3.6-1l2.7,2.5
				c9.5,9.1,16.2,19.8,19.3,31.1c2.8,10.4,2.4,20.9-1.1,29.6c-4.9,12.2-15.1,19.5-27.4,19.5c-2.3,0-4.7-0.3-7.1-0.8
				c-8.5-1.8-16.4-2.8-23.4-2.8c-35.2,0-46.6,23-59.7,49.7c-3.7,7.5-7.5,15.1-11.9,22.4c18.1,19.6,34.2,28.8,50.3,28.8
				c15.3,0,31.6-8.4,49.8-25.7c22.6-21.4,49.8-37.7,78.6-55.1c11-6.6,22.3-13.4,33.8-20.7c-2.2-1.8-4.5-3.6-6.7-5.4
				c-10.4-8.3-21.1-16.9-29.3-27.4c-7-9-10.9-20-14.6-30.7c-1.6-4.6-3.1-9-4.9-13.2l-4.8-11.3l12.1,2.3c4.9,1,10.1,1.5,15.6,2.1
				c12.6,1.4,25.6,2.8,36.1,9.4c20.3,12.8,38.6,27.7,57.9,43.6c5.7,4.7,11.6,9.5,17.6,14.3l47.8-96.5l32.1,7.8l31.9,111.2l-4.5,4.5
				l-1.4,0.5c-11.8,4.2-23.8,8.1-35.5,11.9c-25.9,8.4-52.6,17.1-76.9,29.3c-32.1,16-63.5,35.1-93.8,53.5
				c-16,9.7-32.5,19.7-48.9,29.2c-12.8,7.4-26,14.5-38.8,21.4c-15.4,8.3-31.4,16.9-46.6,26c-9.4,5.6-18,12.5-27,19.8
				c-1.1,0.8-2.1,1.7-3.2,2.6l41.6,15.7c0.3,0,0.7,0,1,0c4.5,0,8.8,1.1,12.9,3.3c5.6,2.9,11,6.5,16.3,10
				c10.9,7.2,21.3,14.1,31.1,14.4c32.5,1,67.4,1.5,113,1.5c18.5,0,37.4-0.1,55.7-0.1c18.3-0.1,37.1-0.1,55.7-0.1
				c9.2,0,17.6,0,25.7,0.1c30.1,0.1,65.2,18.1,85.4,43.7c12.7,16.1,17.8,33.2,14.3,48.3c-4.5,19.5-12.9,34.5-24.9,44.5
				c-12.2,10.2-28.1,15.4-47.4,15.4c-7.3,0-15.2-0.7-23.6-2.2c-1.9-0.3-3.9-0.5-5.7-0.5c-13.2,0-25.3,8.6-32.4,23.1
				c-7.5,15.3-10.3,40.8,6.3,62.3c16.9,21.8,24.3,42.3,22.6,62.7c-1.4,17.7-9.7,35.8-25.9,56.8l-0.3,0.3l-2.6,2.5l-5,2.3
				c-153.4,70.3-312,143-388.3,312.2l-7,15.4L2994.4,2470.7z M2922.2,1474.8c0.6,0.9,1.4,2.1,2.1,3.1c3.4-1.4,6.5-3.3,8.6-5.4
				c-0.6-1.2-1.5-2.7-2.3-3.9L2922.2,1474.8z M2866.8,1475.7l-0.1-6.1h-65.1l0.6,6.1H2866.8z"/>
		</g>
		<g>
			<path class="st2" d="M2060.1,884.6c-32.4,0-66.4-5.6-100.9-16.5c-36.7-11.7-70.7-32.8-103.5-53.3c-14.7-9.1-29.9-18.6-45-27
				l-5.6-3.1l3.2-6c-27.3-41.6-46.4-81.2-58.4-121.1c-13.9-46.2-17.9-91.5-12.3-138.5l0.7-5.6l323.8-12.6
				c-10.4-8.9-20.7-17.6-31-26.4c-51.1-43.5-99.3-84.6-148.4-125.8c-3.3-2.7-8.3-4.3-13.6-5.9c-2.8-0.9-5.6-1.7-8.4-2.8l-4.7-1.9
				l0.6-5c0.2-2.1-0.2-3.9-1.3-5.7l-3.7-5.7l47.1-28l21.9-13.2l2.7,1.5l0.3-0.6l35-24.4l23.3-4l145,10.1l23.5,5.4l31.4,12.2l0.4,0.2
				c35.6,19.7,66.7,42.9,92.5,68.8c25.7,25.8,46.3,54.6,61.2,85.6c15,31,24.3,64.4,27.8,99.2c3.5,35.2,0.9,72.1-7.5,109.6
				c-5.6,24.9-16.6,48.7-27.2,71.7c-3.9,8.5-7.9,17.2-11.6,25.9l5.1,2.3l-7.8,6.7c-4.2,3.6-8.6,7.1-12.8,10.5
				c-9.2,7.4-18,14.5-25.6,22.6C2213.7,850.8,2141,884.6,2060.1,884.6z"/>
		</g>
		<g>
			<path class="st0" d="M3054.3,1759.2l9.4-7.2c4.1-3.1,8.2-6.4,12.1-9.6c9-7.3,18.3-14.8,28.6-20.9c15.5-9.2,31.6-17.9,47.1-26.3
				c12.7-6.9,25.8-13.9,38.5-21.2c16.3-9.4,32.8-19.4,48.7-29c30.6-18.6,62.2-37.7,94.8-54c25.1-12.6,52.4-21.4,78.7-30
				c9.9-3.2,20.2-6.6,30.2-10.1l-27.1-94.7l-14.5-3.5l-50.3,101.7l-6.4-5c-8.3-6.5-16.3-13.1-24.2-19.5c-19-15.6-37-30.3-56.6-42.6
				c-7.9-5-18.9-6.2-30.5-7.5c-1.8-0.2-3.5-0.4-5.3-0.6c0.4,1.1,0.8,2.2,1.1,3.2c3.5,10.1,6.9,19.6,12.6,26.9
				c7.3,9.3,17,17.1,27.2,25.3c4.5,3.6,9.2,7.4,13.8,11.4l6.5,5.7l-7.2,4.7c-14.2,9.3-28.2,17.7-41.6,25.8
				c-28.2,16.9-54.8,33-76.4,53.3c-20.8,19.7-40.1,29.3-58.8,29.3c-21.1,0-41.3-11.7-63.5-36.9l-3.3-3.8l2.8-4.2
				c5.2-7.7,9.6-16.6,13.8-25.2c6.7-13.6,13.7-27.7,24.3-38.5c12.3-12.5,27.7-18.5,47.2-18.5c7.9,0,16.8,1,26.2,3.1
				c1.5,0.3,2.9,0.5,4.3,0.5c6.8,0,12.4-4.1,15.2-11.2c4.4-11,2-28.5-12.6-43.9c-3.7,0.8-7.4,1.5-11.1,2.1
				c-9.7,1.6-19.7,3.3-25.6,8.2c-19.7,16.5-39,24.5-59,24.5c-29.1,0-54.7-17.2-79.5-33.8c-7-4.7-14.2-9.5-21.3-13.9
				c-2.3-1.4-4.7-2.9-7.1-4.4c-18.7-11.6-39.9-24.7-59-25.1c-61.6-1.2-127.7-1.8-214.3-1.8c-34.9,0-70.4,0.1-104.7,0.2
				s-69.8,0.2-104.8,0.2h-3.4l-29.9-14.7l-17.1-33.8l33.7-18.1l20.2,1.8l1.1,4.6c0.6,2.6,1.6,5,3,7.3c7.4,1.3,14.9,2.8,22.1,4.2
				c17.2,3.5,34.9,7.1,52.1,7.3c246.1,4.2,496.4,7.7,738.5,11.2c64.5,0.9,129.1,1.8,193.6,2.8h1.4l1.3,0.6
				c16,7.5,31.3,11.4,45.6,11.4c25.4,0,48-11.6,69.2-35.3l2.2-2.4l43.9,3.6l-6.6,9.4c-60.9,86.4-94.8,183.1-100.5,287.2l-0.4,7.8
				l-7.6-1.7c-6.7-1.5-14.8-2.4-22.7-3.2c-20.1-2.2-39-4.2-46.9-16.4c-18.2-28.1-35.7-46.9-62.2-46.9c-7.9,0-16.4,1.6-25.9,4.8
				c-12.9,4.4-26.2,8.1-39.1,11.6c-24.9,6.9-50.7,14.1-72.9,26.2c-34.9,19.1-67.7,43.8-99.5,67.8c-9.7,7.3-19.8,14.9-29.8,22.2
				c-2.2,1.6-3.8,6.4-5.2,10.7c-0.9,2.7-1.8,5.5-3,8.1l-2.6,5.6L3054.3,1759.2z M3480.6,1577.3l15.9,15.9
				c-2.4-15.2-12.1-23-27.7-27.8L3480.6,1577.3z M3516.3,1475.8c1.1,1.2,3,2.8,4.5,3.7c1.8-1.6,3.6-3.8,5.3-6.2l-5.8-2.9
				c-0.3,0.4-0.6,0.8-1,1.2C3518.4,1472.9,3517,1474.6,3516.3,1475.8z"/>
		</g>
		<g>
			<path class="st1" d="M1396.3,523.1l10.9-11c13.5-13.7,25.6-26.2,37.3-38.3c26-26.9,48.4-50.2,72.3-71.5
				c9.9-8.8,22.7-13.5,35.2-18c6.4-2.3,13-4.7,18.8-7.6c3.8-1.8,7.8-3.5,11.6-5.2c10.5-4.5,21.3-9.1,26.7-16.2
				c31.6-42.7,56.1-65.8,95.2-65.8c18.9,0,41.4,5.2,75.2,17.4l1.2,0.4l19.9,17.8l-0.1,3.1c-0.1,1.1,0.1,2,0.5,2.9l13.8,3.3l33.4-9
				l16.6,2l0.8,0.3c2.3,0.9,4.8,1.7,7.4,2.5c6.3,1.9,12.9,4,18.2,8.4c49.1,41.2,97.4,82.3,148.5,125.8c14.4,12.3,29,24.7,43.8,37.3
				l12.8,10.9l-352,13.7L1396.3,523.1z"/>
		</g>
		<g>
			<path class="st0" d="M990.6,1139.4l0.4-27.8l7,0.6c13.3,1.2,26.9,2.5,39.9,3.9c32.1,3.3,65.4,6.6,97.9,7.3c0.3,0,0.6,0,0.9,0
				c12,0,24.4-4.5,37.6-9.3c6.1-2.2,12.5-4.5,18.8-6.3c0.7-0.2,1.4-0.3,2-0.3c2.6,0,4.4,1.7,5.2,2.5l6,5.7l-0.6,17.2l-5.8,52.8
				L990.6,1139.4z"/>
		</g>
		<g>
			<path class="st0" d="M1562.2,851.9l-1.2-2.4c-9.6-19.5-13.3-37.3-11-52.9c2.6-17.9,13.1-33,31-44.9c2.2-1.4,4.8-2.2,7.9-2.2
				c5.7,0,12.2,2.5,19,5.2c3.6,1.4,7.3,2.9,10.4,3.7l6.8,1.8l-33.9,101.6L1562.2,851.9z"/>
		</g>
		<g>
			<path class="st0" d="M3762.2,637.7c53.8-17.4,77.5-62,102.5-109.2c3.6-6.8,7.3-13.8,11.1-20.7l8.1-14.6l10.7,43.2l-48.1,98.9
				l-81.2,15.2L3762.2,637.7z"/>
		</g>
		<g>
			<path class="st0" d="M1981.8,266.3l-2-12.6c24.9-10,51.5-19.3,78-19.3c27.6,0,51.3,10,72.7,30.6l13,12.5L1981.8,266.3z"/>
		</g>
		<g>
			<path class="st0" d="M2351,754.3c-1.7-0.1-3.2-0.8-4.4-2.1l-3.3-3.3l32.3-64.5l10.5,8.6l-30.7,61.5L2351,754.3z"/>
		</g>
		<g>
			
				<rect x="4051.3" y="1082.1" transform="matrix(0.5199 -0.8542 0.8542 0.5199 1026.3883 4003.5571)" class="st0" width="47.3" height="13.1"/>
		</g>
		<g>
			
				<rect x="4037.2" y="1137.7" transform="matrix(0.2639 -0.9645 0.9645 0.2639 1878.4894 4749.9292)" class="st0" width="28.3" height="13.1"/>
		</g>
		<g>
			<path class="st0" d="M1240.2,1204.8l22.9-27.3l3.2,0.1c3.4,0.1,6.9,0.2,10.3,0.2c0.8,0,1.7,0,2.5,0h6.1l1.7,19.7l0.1,35.8
				L1240.2,1204.8z"/>
		</g>
		<g>
			
				<rect x="1925" y="268.2" transform="matrix(0.8203 -0.572 0.572 0.8203 192.4223 1161.8311)" class="st0" width="39.9" height="13.1"/>
		</g>
		<g>
			
				<rect x="2157.1" y="264.6" transform="matrix(0.3629 -0.9318 0.9318 0.3629 1116.5831 2195.1238)" class="st0" width="13.1" height="32.8"/>
		</g>
		<g>
			
				<rect x="1635.1" y="1038.9" transform="matrix(0.8935 -0.449 0.449 0.8935 -293.7679 852.0827)" class="st0" width="29.3" height="13.1"/>
		</g>
		<g>
			<polygon class="st0" points="1213.4,1067.1 1210.9,1055.3 1237.4,1052.9 1233.4,1079.1 			"/>
		</g>
		<g>
			<polygon class="st0" points="3632.6,1372 3664.4,1384.8 3629.6,1413.6 			"/>
		</g>
		<g>
			
				<rect x="1900.3" y="287.3" transform="matrix(0.8567 -0.5158 0.5158 0.8567 122.2986 1027.9375)" class="st0" width="21.8" height="13.1"/>
		</g>
		<g>
			
				<rect x="1779" y="309.5" transform="matrix(0.6656 -0.7463 0.7463 0.6656 357.7893 1439.7738)" class="st0" width="13.1" height="22.3"/>
		</g>
		<g>
			<path class="st0" d="M1830.5,336.6l32-22l3.7,5.6c2.8,4.4,4,9.2,3.4,14.4l-0.8,6.5L1830.5,336.6z"/>
		</g>
		<g>
			
				<rect x="1799.3" y="329.8" transform="matrix(0.2347 -0.9721 0.9721 0.2347 1052.4473 2014.8831)" class="st0" width="13.1" height="18.5"/>
		</g>
		<g>
			
				<rect x="1540.7" y="1017.3" transform="matrix(0.9999 -1.210064e-02 1.210064e-02 0.9999 -12.2754 18.8389)" class="st0" width="20" height="13.1"/>
		</g>
		<g>
			<path class="st0" d="M1201.7,1086.7c0-6.3,2.8-11.6,7.9-15.2l4.4-3.1l15,14.4l-27.4,15.1L1201.7,1086.7z"/>
		</g>
		<g>
			<polygon class="st0" points="1186.9,1115 1202.9,1089.6 1222.5,1116.1 1198.4,1125.9 			"/>
		</g>
		<g>
			<polygon class="st0" points="1193.4,1113.8 1229.7,1098.9 1192.1,1154.9 			"/>
		</g>
		<g>
			<polygon class="st0" points="3979.4,1230.8 3979.8,1217.7 3991.5,1216.7 3994,1229.5 3986.9,1231.8 			"/>
		</g>
		<g>
			<path class="st0" d="M2020.2,3495.2l-21.6,20.7l-2.6-11.3c-2.2-9.6-4.7-19.4-7.1-28.8c-5.4-21.3-11.1-43.4-14.2-65.6
				c-7.8-56.1-30.2-82.1-75.1-87l-2.3-0.2l-28.8-28.3l0.1-0.1c-4.6-5.4-9-11.5-13.1-17.4c-8.9-12.6-17.4-24.6-28.3-29.4
				c-16.4-7.3-34.2-13.1-51.4-18.7c-49.6-16.1-100.8-32.7-129.1-88.6c-0.6,0-1.2,0.1-1.7,0.1c-0.2,0-0.4,0-0.6,0l0.1-4l-6.3,0.7
				c-9.4-28.5-12-54.2-8-78.4c4.3-25.7,16.3-49.6,35.9-71.1c1.1-1.4,0.6-8,0.3-11.2c-0.2-3.1-0.5-6.2-0.3-9.2v-1.1h-0.1l0.6-1.4h0.1
				l26.8-53.9l-1.6-4.9l6.1-6l0.5-0.3c3.5-2.4,7.3-4.4,11-6.4c7.3-3.9,14.1-7.6,17.4-12.7c41.3-64.5,24.8-135.1,10.2-197.4
				c-2.9-12.2-12.6-23.4-23-35.2c-4.9-5.6-9.9-11.3-14.2-17.2l-0.9-1.2l-5.9-31.2l-23.8-47.1l3.6-2.4h-3.9
				c0.3-71.6-9.9-88.2-66.6-98.1v10.4l-10.4-12.1l-2.7-0.4v-2.8l-10.4-12.1l10,1.5c-1.1-8.9-4-15.3-8.8-19.4
				c-5.3-4.5-13.3-6.6-24.6-6.6c-4.2,0-8.8,0.3-14.1,0.9l-2.5,0.3l-13.5-9.5l-13.4-8.7l2.1,8.9L1407.2,2287l42.2-32.4l775.6,0.2
				l0.6,34.8h-296.9l-0.3,6.9l77.4,15.7l15,30.8l-12.1-1.5c-9.3-1.2-18.2-1.8-26.4-1.8c-82.1,0-96.1,56.3-106.9,135.8l-0.6,4.5
				l-60.9,14.3c7.7,8.9,15.6,17.3,23.4,25.6c22.3,23.7,43.4,46.1,53.7,73.3c21.6,57,36.9,117.2,51.6,175.5
				c5.7,22.3,11.5,45.4,17.6,67.9c1.8,6.5,3.5,13,5.3,19.6c13.2,48.6,26.9,98.9,39,148.6c6,24.7,10.2,51.4,12.5,79.4
				c1.4,16.8-0.2,33.2-1.6,49.1c-3.1,33-6,64.1,14.9,100.6c1.2,2.1,2.4,4.2,3.7,6.4c13.1,22.6,29.4,50.7,34.2,82.6
				c2.7,17.6,1.5,34.8-3.6,51c-4.7,15.1-12.8,29.8-24.2,43.8c10.7,1.2,20.6,2.3,30.3,3.4c26,3,48.5,5.6,70.8,6.6
				c36.1,1.6,56,4.8,64.5,17.4c7.1,10.7,4.2,25.7-3.7,47.8l44.3,72.1L2020.2,3495.2z M1996.2,3324.5l3.1-0.3l-1.9-20h-0.3
				L1996.2,3324.5z M1769.7,2419.4l42.9-26.4l-3.9-7.5l-45.9,18.7L1769.7,2419.4z"/>
		</g>
		<g>
			<path class="st0" d="M2429.6,2289.7c-0.6,0-1.2,0-1.8,0c-24.2-0.3-50-0.4-81.2-0.4c-22.1,0-44.5,0.1-66.3,0.1
				c-20.2,0.1-41,0.1-61.5,0.1h-6.5l-0.6-34.6l6.5-0.2c17.5-0.5,35.3-0.7,52.4-1c43.3-0.6,88.1-1.2,131.6-5.7
				c13.4-1.4,26.5-10.7,40.4-20.7c3.9-2.8,8-5.7,12-8.4c-3.8-3.2-7.5-6.6-11.1-9.9c-12.7-11.6-24.7-22.5-37.4-24.6
				c-24.8-4.1-53.6-10.1-79.1-23.2c-25.7-13.2-45.8-32.6-61.4-59.1c-10.8-18.4-26.5-28.5-44.1-28.5c-12.5,0-25.1,5.2-36.5,15
				l-3.9,3.3l-4.2-3c-9-6.4-18.3-12.7-27.2-18.8c-22-15-44.7-30.5-65.4-47.9c-12.9-10.8-24.1-29.4-29.3-48.5
				c-22.7-83.4-85.2-135.2-163-135.2c-22.1,0-44.7,4.2-67.3,12.6l87.2,129l-19.6,17.9l-4.3-5.7c-4.9-6.4-10.1-12.8-15.2-18.9
				c-11.5-14-23.5-28.5-32.3-44.6c-23.8-43.4-47.4-63.6-74.2-63.6c-4.3,0-8.8,0.5-13.3,1.6l-5.9,1.4l-1.8-5.8
				c-2.4-7.8-4.1-15-5.8-22c-3-12.8-5.7-23.9-11.4-31.8c-31.4-43-73.6-62.1-136.9-62.1c-14,0-29.5,0.9-47.4,2.8
				c-14.7,1.6-29.7,3.9-44.2,6.1c-6.7,1-13.6,2.1-20.4,3.1l-9.1,1.3l1.7-9c21.6-112.9,11.7-225.9-29.5-335.9l-1.5-3.9l25.4-26.4
				l4.2,8.1c29.8,57.1,48.1,105.2,57.5,151.2c11.1,53.9,10,105.1-3.4,156l101.3,7.6l25,12.2c44.5,5.8,86.8,15,115,60.7
				c3.1,5.1,14,14.2,51.5,18.9c44.4,5.5,89.9,8.5,133.9,11.4c7.2,0.5,14.3,0.9,21.5,1.4c31.4,2.1,59.9,14.1,80.3,33.7
				c20,19.2,31.3,44.7,31.7,71.7c1.2,68.2,40.8,82.6,86.7,99.2c7,2.5,14.1,5.1,21.2,8l0.3-0.1l2.4,1.1l26.5,13.1
				c8.5,4,18.2,7.5,27.6,10.9c22,7.9,44.7,16.1,57.7,32.7c32.5,41.7,70.2,61.1,118.6,61.1c1.1,0,2.2,0,3.3,0c0.8,0,1.7,0,2.5,0
				c21.2,0,36.3,5,46.2,15.4c9.5,9.9,13.8,24.2,13.2,43.7l12.8,26.4l-0.3,2C2497.6,2270.5,2473.5,2289.7,2429.6,2289.7z"/>
		</g>
		<g>
			<path class="st0" d="M1500.8,2385.2c-16.3-3.2-32.5-8.4-48.2-13.5c-25.3-8.2-51.4-16.6-78.4-16.6c-24.1,0-46.8,6.8-69.3,20.7
				l-16.7,10.3l53.2-135.7l128.6,5l-43.4,33.3l94.1,100.5L1500.8,2385.2z"/>
		</g>
		<g>
			<polygon class="st0" points="1233.2,1930.9 1233.2,1843 1258.6,1839.4 1268.5,1938.6 			"/>
		</g>
		<g>
			<path class="st0" d="M2973.8,3933.7c-2-2-4.1-4-6.1-6l-1.5-1.4l-0.4-2c-1.4-6.8-2.8-13.6-4-20.3c-2.8-14.3-5.6-29-9.4-43.1
				l-2.4-9c-26.7-98.9-54.4-201.1-7.3-301.1c27.6-58.7,60.8-113.6,96-171.6c13.9-23,28.3-46.7,42.4-70.8
				c-12.5-3.5-20.1-8.7-23.7-16.1c-6-12.5,1.5-26.7,9.5-41.8c8.8-16.5,17.8-33.6,9.4-48.3c-28.7-1.2-58.2-2.7-86.9-4.1
				c-68.7-3.4-139.7-6.8-210.3-7.9c-53.4-0.8-106.3-0.9-146.4-0.9c-21.5,0-43.3,0-64.5,0.1c-21.1,0-43,0.1-64.5,0.1
				c-40.4,0-93.6-0.1-147.3-0.9c-15.1-0.2-29.5-8.2-43.3-15.8c-6.2-3.4-12.1-6.7-18-9.3l-8.5-3.7l5.5-6v-4.7l7.3,0.8
				c11.1,1.2,22.3,2.7,33.1,4.2c23.1,3.2,47,6.4,70.3,6.6c186.6,0.9,376.4,1.1,559.8,1.3c59.5,0.1,119,0.1,178.5,0.2h5.1l27.8,111.9
				c21.4-9.1,43.5-12.3,64.9-15.5c39.9-5.9,74.4-10.9,96.5-51.5l8.3-15.4l13.7,61.2l-4,2.4c-4.8,3-9.5,6.3-14.5,9.9
				c-11,7.9-22.4,16.1-35.5,19.4c-83.4,21.4-163,46.2-220,113.6l-0.2,0.2l-0.2,0.2c-131.8,133.6-154.3,323.4-57.4,483.4l2.6,4.3
				l-49.8,52.2L2973.8,3933.7z"/>
		</g>
		<g>
			<polygon class="st0" points="4054,6933.9 4048.9,6928.6 4061.5,6917.2 4065.3,6926.8 4104.9,6968.8 4075.3,6988.2 			"/>
		</g>
		<g>
			<polygon class="st0" points="4200.1,7079.2 4168.8,7048.3 4177.9,7037.4 4209.4,7069.9 4227.2,7087.5 4217,7096.6 			"/>
		</g>
		<g>
			<path class="st0" d="M4027.1,6762.9l11,0.5c15.3,0.6,25.8,4.5,32.2,11.9c8.8,10.2,7.3,24.4,6.1,37c-0.9,9.2-1.8,18,1,24
				l-11.9,5.6L4027.1,6762.9z"/>
		</g>
		<g>
			<polygon class="st0" points="3765.4,6704.6 3770.1,6684.8 3824.1,6690.7 3810.5,6721.1 			"/>
		</g>
		<g>
			<polygon class="st0" points="4151,6976.3 4162.7,6950.4 4195.9,6962.8 4218.9,7009.1 			"/>
		</g>
		<g>
			<path class="st0" d="M3648.1,6791.9l-1.7-1.7c-2.3-2.3-4.6-4.6-6.9-7l-2-2.1l3.2-42.6h3.4c0.6-0.6,6.5-6.5,6.5-6.5l37.1,48.4
				l-4.5,4.1c-2.7,2.4-5.4,4.9-8,7.4l-2.1,2L3648.1,6791.9z"/>
		</g>
		<g>
			<polygon class="st0" points="3929.8,6823 3938,6814.9 3973.9,6827 3962,6851.4 			"/>
		</g>
		<g>
			<path class="st0" d="M4051.7,6929.8l-1.5-2c-1.8-2.4-2.2-4.9-1-7.3l1.8-3.6h1.5l0.5-0.7h3.3c3.2,0,5.4,1.9,6.6,5.6l0.6,2l4.2,5.6
				l-12.7,11.4L4051.7,6929.8z"/>
		</g>
		<g>
			<polygon class="st0" points="4160,7049.9 4163.2,7037.1 4190.3,7043.1 4180,7055.3 			"/>
		</g>
		<g>
			<polygon class="st0" points="4216.3,7099.7 4209.1,7086 4219.8,7076.5 4228,7093.9 4238.8,7114.6 4228.6,7125.7 			"/>
		</g>
		<g>
			<polygon class="st0" points="3979.7,6613.6 3999.8,6595.6 4023.4,6612.9 4000.7,6639.7 			"/>
		</g>
		<g>
			<path class="st0" d="M3807.1,6789.3l-6.4-23.1l26.1,25.1l0.5,1.2c1.7,4-1,6.8-2,7.9l-11.8,12.2L3807.1,6789.3z"/>
		</g>
		<g>
			<path class="st0" d="M3937,6828.8c-0.4-0.2-0.9-0.3-1.4-0.5c-1.9-0.6-4.2-1.4-6.3-3.2c-2.9-2.5-2.8-6.1-2.8-8c0-0.3,0-0.7,0-0.9
				l-1.8-18.5l24.3,24.7l-8,7.9L3937,6828.8z"/>
		</g>
		<g>
			
				<rect x="4204.2" y="6991.3" transform="matrix(0.707 -0.7072 0.7072 0.707 -3717.377 5029.1138)" class="st0" width="13.1" height="19.3"/>
		</g>
		<g>
			<polygon class="st0" points="4218.8,7116.9 4229.3,7105.4 4238.8,7110.2 4233.7,7122.3 			"/>
		</g>
		<g>
			<path class="st0" d="M2718.8,4746.4l-5.1-0.3c1.3-21.2-2.6-36.9-11.7-46.5c-8.8-9.3-22.7-13.8-42.6-13.8c-0.3,0-0.5,0-0.8,0
				l3.5,2.8l-21.7-1.7l-1.1,0.1l-18.4-14.8l-13.5-9l-0.6-2.6c-22.8-105.6-88.9-284.8-275.5-298.1l-4.9-0.3l-20.9-96.1l106.1-122
				c-3.4-5.4-7-10.7-10.5-16c-10.2-15.2-20.8-31-27.2-48.2c-5.6-15.1-6.3-31.6-7-47.6c-0.3-6.8-0.6-13.8-1.3-20.4l-0.9-8.6l8.5,1.5
				c5.9,1,11.8,2.1,17.7,3.1c15.3,2.7,31.2,5.4,46.8,8.4c4.6,0.9,8.7,2.4,13.9,4.3c1.3,0.5,2.7,1,4.2,1.5
				c21.7-29.2,51-43.3,89.5-43.3c24.2,0,48.4,5.3,71.9,10.3l2.7,0.6c10.9,2.4,20.5,3.5,29.4,3.5c28.2,0,48.6-11.4,69.6-39.1
				c-4.9-5.1-9.4-10.7-13.8-16.2c-13.3-16.5-25.8-32-46.9-32c-7,0-14.8,1.7-23.4,5c-0.9,0.3-1.8,0.5-2.7,0.5c0,0,0,0-0.1,0
				c-2.5,0-8.1-0.2-18.4-21.3c-2.6-5.4-8.7-18.7-10.9-32l-97.7-47.8l-25.9-39.1l-118.5-40.4l-14.3-14.2l-80.4-132.4l-23.6-24
				l-14.2-0.2l-40.4-65.7l1.1-3c6.8-18.7,10.5-32.5,6.2-39c-5.2-7.9-25.4-10.3-54.1-11.6c-22.7-1-45.4-3.7-71.7-6.7
				c-13.4-1.6-27.2-3.2-42.7-4.8l-13.2-1.4l9.1-9.7c61.6-65.5,26.1-126.8,0.2-171.5c-1.3-2.2-2.5-4.4-3.7-6.5
				c-22.9-40.1-19.7-74.8-16.6-108.3c1.5-16,2.9-31.1,1.6-46.8c-2.2-27.4-6.3-53.4-12.2-77.4c-12.1-49.6-25.7-99.8-38.9-148.3
				c-1.8-6.5-3.6-13.1-5.3-19.6c-6.1-22.6-12-45.8-17.7-68.1c-14.7-57.9-29.9-117.8-51.2-174.1c-9.4-24.8-29.6-46.2-51-69
				c-10.3-10.9-20.9-22.2-30.8-34.4l-6.6-8.1l72.7-17.1c5.1-36.7,10.9-69.2,25.9-94.9c18.9-32.1,49.4-47.8,93.4-47.8
				c5.1,0,10.5,0.2,16.1,0.7l-1.7-3.4l-82-16.6l1.2-30.7h302.9c20.5,0,41.3-0.1,61.5-0.1c21.7-0.1,44.2-0.1,66.3-0.1
				c31.2,0,57.1,0.1,81.3,0.4c0.5,0,1.1,0,1.6,0c36.5,0,55.3-14,60.5-45.4l-12.4-25.7l0.1-1.7c0.7-16.6-2.4-28.3-9.5-35.7
				c-7.3-7.6-19.3-11.3-36.7-11.3c-0.7,0-1.5,0-2.3,0c-1.2,0-2.4,0-3.5,0c-26.7,0-50.1-5.4-71.5-16.5
				c-21.1-10.9-39.9-27.2-57.5-49.7c-10.7-13.7-30.7-20.9-51.8-28.5c-9.7-3.5-19.7-7.1-28.8-11.4l-24.3-12l-5.7,1.7l-0.4-8.5
				c-0.3-8.9-0.5-18-0.7-26.8c-0.4-19.8-0.7-40.3-3.3-60c-1.5-12-4.9-24.2-8.1-36c-4.2-15.4-8.6-31.3-9.3-47.5
				c-2-44,4.5-71.4,21-88.7c17.3-18.1,45.4-25.9,94.1-25.9c8.7,0,17.6-0.3,26.2-0.5c8.9-0.2,18.1-0.5,27.2-0.5
				c15.6,0,28.3,0.8,39.9,2.5c12.4,1.8,23.2,8.9,38.1,18.8c7.7,5.1,16.5,10.9,27.2,17.1l13,7.5l-89.7,28.1
				c-2.3,19.3-0.5,33.5,5.2,40.1c2.6,3,6,4.4,10.6,4.4c5.6,0,12.7-2.1,21.2-6.2c15.2-7.4,28.4-11,40.4-11
				c24.9,0,42.4,15.5,57.7,32.3c7.2,7.9,17.9,13.4,31.3,20.2c5.1,2.6,10.8,5.5,16.8,8.8c4-9.3,7.9-18.1,11.7-26.6
				c10-22.4,18.6-41.8,24.3-62.2c8.4-30.5,24.2-44.7,49.6-44.7c6.4,0,13.4,0.9,21.4,2.7c18.8,4.2,35.1,6.3,49.7,6.3
				c39.8,0,72.7-15.1,106.4-49.1c25.7-25.8,70.9-31.2,114.5-36.5c18.9-2.3,38.4-4.6,55.7-8.5l4.8-1.1l16.5,29l-1.8,3.2
				c-7,12.7-13.5,26.4-19.8,39.7c-14.5,30.4-29.4,61.9-52.3,85.7c-33.9,35.1-29.8,72-25.5,110.9c0.9,7.8,1.8,15.9,2.3,23.9
				c1.9,26.4,6.6,52.8,11.6,80.7c2.1,11.6,4.2,23.6,6.2,36c1,0.4,2,0.8,3,1.2c5.4,2.2,11.6,4.7,17.3,4.7h0.3c0.9,0,1.8,0,2.7,0
				c26.6,0,43.5,5.8,53,18.1c9.9,12.9,11.1,32,3.7,60.1c-13.6,51.7-28.1,111.6-28.4,169.6c-0.1,25.6,10.4,51.3,21.6,78.5
				c4.9,12,10,24.4,14.1,36.7l0.5,1.5l-0.2,1.5c-1.2,8.1-2.5,16.2-3.7,24.4c-2.6,17.5-5.3,35.5-8.2,53.2
				c-9.6,58.4-19,115.6-29,176.2c-3.8,23.3-7.7,46.7-11.6,70.4l-1.5,9.3l-8.2-4.7c-39.9-23-81.2-34.7-122.9-34.7
				c-33.3,0-67.1,7.5-100.6,22.3c-3.2,1.4-7.1,2.8-10.8,4.1c-4.2,1.5-11,3.9-13.6,5.6c-0.9,26.3-7.1,44.6-19,55.7
				c-10.1,9.4-23.5,13.7-43.6,13.7c-9.1,0-18.4-0.8-28.3-1.7c-8.1-0.7-16.5-1.4-24.6-1.7c-0.2,0-0.4,0-0.7,0
				c-11.6,0-21.6,8.5-28,15.5c-24.1,26.8-38.9,78.7-34.4,120.7c0.4,3.7,0.5,8.4-2.5,11.8c-1.7,1.9-4.2,3-6.9,3c-2.4,0-5-0.8-8-2.5
				c-11.1,6.7-22.3,13.6-33.1,20.2c-28.7,17.7-58.3,35.9-88.7,51.8c-14.5,7.5-30.4,12.3-45.7,16.8c-11.5,3.4-23.3,6.9-34.2,11.5
				c-8.4,3.6-15.9,9.9-23.8,16.5c-1.4,1.2-2.9,2.4-4.3,3.6l29.9,20.9c6.3,2.8,12.5,6.2,18.5,9.6c13,7.2,25.3,14,37.2,14.2
				c53.6,0.8,106.8,0.9,147.1,0.9c21.5,0,43.3,0,64.5-0.1c21.1,0,43-0.1,64.5-0.1c40.2,0,93.1,0.1,146.6,0.9
				c70.8,1.1,141.9,4.6,210.7,7.9c29.7,1.5,60.5,3,90.2,4.2l3.2,0.1l1.9,2.5c16,21.8,3.4,45.6-6.7,64.7c-6.4,12-12.4,23.4-9.3,30
				c2.3,4.8,10.3,8.6,23.3,11l9.1,1.7l-4.7,8c-15.6,26.9-31.5,53.2-47,78.7c-35,57.8-68.1,112.3-95.4,170.4
				c-45,95.7-18,195.6,8.1,292.1l2.4,9c3.9,14.6,6.8,29.5,9.6,44c1.3,6.6,2.6,13.4,4,20.1l0.6,3l-1.9,2.4
				c-3.8,4.9-7.8,9.8-11.6,14.5c-8.8,10.8-17.8,22-25.8,33.6c-3.3,4.7-5.9,10.3-8.6,16.3c-4.7,10.1-9.5,20.5-18.3,27.1
				c-6.1,4.5-14.1,7.2-21.9,9.8c-8,2.7-18,6-18.9,10.1c-0.5,2.1,0.3,8.6,17,24.4c1.7,1.6,2.4,3.9,1.9,6.2
				c-0.8,4-12.9,24.1-23.9,28.4c-46.4,18.2-63.6,57.1-81.8,98.2c-10.9,24.7-22.2,50.1-40.2,70.8c-26.1,29.8-49.6,62.9-71.4,94.1
				c-1.2,1.7-2.3,3.3-3.5,5c-12.7,18-25.8,36.7-29.7,55.8c2.9,2.2,10.8,5.9,16.2,8.4c12.2,5.7,26.1,12.2,34.2,20.5
				c19.7,20.1,37.3,42.6,54.4,64.3c7,8.9,14.1,18.1,21.4,26.9l26.8,27.2l14.8,28.9l-0.2,2c-1.4,12.3,0.2,21.1,4.9,26.3
				c4,4.5,10.8,6.8,20.2,6.8c2.2,0,4.6-0.1,7.1-0.4l7-0.7l1.2,39.9h-61.5l8.3,79.8l-75.9,1.9L2718.8,4746.4z"/>
		</g>
		<g>
			<path class="st0" d="M3103.5,5499.3c-5.1-5.3-9.3-10.5-13.5-15.5c-7.6-9.1-14.1-17-21.8-21c-20-10.4-38.4-21.2-43.7-39.6
				c-4-13.8-0.1-29.9,12.1-50.6c2.4-4,2.4-14.4-4.7-31.8c-5.8-14.2-14.8-29.3-23.5-39.4c-31.8-36.9-68.7-69.5-106.5-94.5
				c-65.7-43.3-103-109.2-111.2-195.7c-5.8-62.1-48.9-82.4-108.6-110.5l-16.4-7.7l141.3-69.1c0.8-3.1,2.7-5.6,5.5-7.5l51.3-79.1
				l73.7,14.1l1.5,1.9c11.9,15.2,25.2,30.2,38.1,44.7c29.3,33.2,59.7,67.5,77.5,107.2c23,51.2-8.6,83.2-39.2,114.2
				c-15.7,15.9-31.9,32.2-41.3,51.4c12.6,20.2,26.3,40.7,39.6,60.6c33.7,50.7,68.6,103.1,94.3,159.6c13.9,30.5,27.2,63.4,31.3,97.7
				c4.8,40-3.6,75.8-25.7,109.5l-4.5,6.9L3103.5,5499.3z"/>
		</g>
		<g>
			<path class="st0" d="M2757,5239.1l7.4-10.5c3.4,1.4,7,2.6,10.8,3.8c9,2.9,18.2,5.9,25.1,12.4c35.7,33.8,75.8,50.2,122.6,50.2
				c6.9,0,14.1-0.4,21.4-1.1l3.3-0.3l2.2,2.5c3.9,4.4,5.4,9.8,4.3,15.7l-0.4,1.9l-1.4,1.4c-8.7,9-21.4,11.5-33.7,14
				c-20.8,4.2-35.9,7.2-31.8,36.5l3,21.2L2757,5239.1z"/>
		</g>
		<g>
			<polygon class="st0" points="2772.5,4658.4 2841.9,4658.4 2888.6,4657.8 2872.7,4723.9 2782.4,4753.7 			"/>
		</g>
		<g>
			<polygon class="st1" points="2624.4,4427.1 2767.9,4323 2771.2,4433.8 			"/>
		</g>
		<g>
			<polygon class="st0" points="2860.5,4750.1 2860.6,4718 2875.1,4657.8 2912.2,4658.5 2927,4703.2 2942.9,4765.9 			"/>
		</g>
		<g>
			<polygon class="st0" points="2945.7,4034.4 3115.4,4041.4 3112.5,4068.9 2938.7,4088.7 			"/>
		</g>
		<g>
			<path class="st0" d="M2910.4,4611.8l41.4-81.4l6.3,5.5c2.9,2.5,5.9,5.1,8.9,7.6l3.1,2.6l-21.1,90.4L2910.4,4611.8z"/>
		</g>
		<g>
			<path class="st0" d="M2833.2,4645.9c-13.3,0-23.4-3.8-30.1-11.2c-7.3-8.2-10-20.5-8.1-36.6l1.6-13.6l58.6,59.6l-13.6,1.4
				C2838.7,4645.7,2835.9,4645.9,2833.2,4645.9z"/>
		</g>
		<g>
			<polygon class="st0" points="3087,4921.1 3086.3,4877.2 3098.7,4874.2 3133.8,4945.1 			"/>
		</g>
		<g>
			
				<rect x="2768.7" y="4540.2" transform="matrix(0.7116 -0.7026 0.7026 0.7116 -2402.6924 3264.6714)" class="st0" width="13.1" height="37.5"/>
		</g>
		<g>
			<polygon class="st0" points="2979.8,5476.9 2976.4,5460.3 3016.9,5452.6 3037.7,5482 			"/>
		</g>
		<g>
			
				<rect x="2907.5" y="4663.5" transform="matrix(0.9493 -0.3143 0.3143 0.9493 -1324.7272 1153.3203)" class="st0" width="13.1" height="42.2"/>
		</g>
		<g>
			<path class="st0" d="M2710.5,4987.6l-3.9-24.9l6.2-1.2c1-0.2,2-0.3,3-0.3c4.5,0,8.5,2.1,11.2,5.9l1.9,2.6l-5.7,18.7
				L2710.5,4987.6z"/>
		</g>
		<g>
			<path class="st0" d="M2988.8,4764.8c-6.1-3.5-9.5-9-9.8-16l12.2-3.7l6.5,10.6L2988.8,4764.8z"/>
		</g>
		<g>
			<path class="st0" d="M3056.5,4845.2c-6.4-2.4-10.6-7.2-12.1-13.9l11.4-5.8l8,9.2L3056.5,4845.2z"/>
		</g>
		<g>
			
				<rect x="3023.5" y="4800.6" transform="matrix(0.7443 -0.6679 0.6679 0.7443 -2436.0383 3253.1345)" class="st0" width="13.1" height="14"/>
		</g>
		<g>
			<path class="st0" d="M2999.3,4778.1c-4.1-1.9-6.7-5.3-7.7-9.6l11.5-5.6l4.2,5.2L2999.3,4778.1z"/>
		</g>
		<g>
			<path class="st1" d="M3131.6,1786.6l-1.5-0.8c-2.1-1.2-4.3-1.7-6.7-1.7c-0.5,0-0.9,0-1.4,0.1l-11.3,1l4.7-10.3
				c0.9-2,1.7-4.3,2.5-6.8c2-6.1,4.4-13.1,9.9-17.1c9.9-7.3,19.9-14.8,29.6-22.1c32.1-24.2,65.4-49.2,101.1-68.8
				c23.5-12.9,50-20.2,75.7-27.3c12.7-3.5,25.9-7.2,38.4-11.4c10.9-3.7,20.8-5.5,30.1-5.5c15.5,0,29.2,5,42,15.3
				c10.2,8.2,19.8,19.8,31.3,37.5c4.5,6.9,21.9,8.8,37.3,10.5c8.2,0.9,16.7,1.8,24.2,3.5l4.6,1.1l9.7,103.4L3131.6,1786.6z"/>
		</g>
		<g>
			<polygon class="st0" points="3578.5,1935.6 3595.9,1891.4 3731.9,1903.5 3815.7,1815.2 3826.6,1822.1 3771.6,1960.8 			"/>
		</g>
		<g>
			<path class="st0" d="M3390.5,2154.8l-0.4-1c-1.7-4.1,1.1-6.8,2.1-7.9l5-5l29.8,25.5l-14.4,14.4L3390.5,2154.8z"/>
		</g>
		<g>
			
				<rect x="3493.5" y="1970.5" transform="matrix(0.7098 -0.7044 0.7044 0.7098 -376.5257 3040.1648)" class="st0" width="15.8" height="13.1"/>
		</g>
		<g>
			
				<rect x="2489.9" y="3761.8" transform="matrix(0.8331 -0.5531 0.5531 0.8331 -1677.1196 2012.5792)" class="st0" width="13.1" height="47.3"/>
		</g>
		<g>
			
				<rect x="2252.1" y="3548.5" transform="matrix(0.7139 -0.7003 0.7003 0.7139 -1851.666 2602.3374)" class="st0" width="13.1" height="37.1"/>
		</g>
		<g>
			
				<rect x="2351.6" y="3709.6" transform="matrix(0.704 -0.7102 0.7102 0.704 -1942.851 2775.4429)" class="st0" width="13.1" height="17.8"/>
		</g>
		<g>
			<path class="st0" d="M3788.1,6392.2c-15.8-3.6-26.3-10.5-31.2-20.4c-5.3-10.8-4.1-24.5,3.9-41.9l0.2-0.4l79.3-121.8l36.8-4.9
				l1.7,0.8c3.4,1.6,6.9,3.3,10.2,5l4.3,2.2l-8.8,49.3l-92.2,133.2L3788.1,6392.2z"/>
		</g>
		<g>
			<path class="st0" d="M3326.7,6487.3l12.4,0.5c0.1,0,0.3,0,0.4,0c9.8,0,21.6-14.7,37.2-46.2l6-12.2l23.1,49.4l-18.7,72.4
				l-10.8-1.4l-9.4,1.8L3326.7,6487.3z"/>
		</g>
		<g>
			<path class="st0" d="M3482.7,6516l1.8-2c1.1-1.3,1.5-2.4,1.2-4.1l-0.5-2.8l22.9-30.3l27.5-14.9l0.1-12.8l8.2,8.3l4.9-2.7v7.7
				l4.7,4.8l-4.7,2.6l-0.3,52l-64,32.4L3482.7,6516z"/>
		</g>
		<g>
			<polygon class="st0" points="3388.4,6415 3444.4,6369.9 3440.4,6433.9 			"/>
		</g>
		<g>
			<path class="st0" d="M3455.5,6361.8c-5.6-18.5-5.4-30.9,0.7-39.2c6.5-8.8,18-10,27.2-10c4,0,8.1,0.2,12.1,0.5
				c4,0.2,7.8,0.4,11.4,0.4c1.1,0,2.1,0,3.1-0.1l19.6-0.8l-71.3,58.5L3455.5,6361.8z"/>
		</g>
		<g>
			<polygon class="st0" points="3950.8,6465.7 3937.8,6452.3 3949.1,6418.5 3997.1,6478.2 			"/>
		</g>
		<g>
			<polygon class="st0" points="3533.8,6465.9 3540.3,6456.2 3551.5,6462.9 3544.3,6476.5 			"/>
		</g>
		<g>
			<polygon class="st0" points="3334.2,3208.8 3366.1,3158.7 3388,3171.2 3348.3,3271.9 			"/>
		</g>
		<g>
			
				<rect x="3119.1" y="5559.4" transform="matrix(0.8007 -0.5991 0.5991 0.8007 -2727.1548 2987.1487)" class="st0" width="13.1" height="65.4"/>
		</g>
		<g>
			<path class="st0" d="M3191.4,5580.4l0.5-20.1l-15.1,2.7l15.4-14.2l0.1-2l2.6-0.5l10.8-9.9l-0.2,8l31.1-5.7l2.4,3.5
				c1.7,2.4,3.5,4.8,5.4,7.1l4.9,5.8l-52.3,32.1L3191.4,5580.4z"/>
		</g>
		<g>
			<polygon class="st0" points="3166.6,5578.4 3200.6,5570.9 3208,5579.9 3177.4,5602.3 			"/>
		</g>
		<g>
			<path class="st0" d="M3214.2,5440.5l10.2,9.6c3.2,3,6.5,6.2,9.5,9.4l5.9,6.1l-28,15.7L3214.2,5440.5z"/>
		</g>
		<g>
			
				<rect x="3118.9" y="4926.7" transform="matrix(0.7061 -0.7081 0.7081 0.7061 -2576.9478 3663.9695)" class="st0" width="13.1" height="19.4"/>
		</g>
		<g>
			<path class="st0" d="M3200.2,5559.3l-3.5,3.2l-4.1-6.1c-1.2-0.5-2.5-1.2-3.7-2.3c-2.5-2.2-2.7-5.2-2.6-7.1l-6.2-9.2l5.9,2.2
				l-1-18.5l13.3,19.9l2.9,4.3l9.2,4.1l-4,3.7l7.3,10.9L3200.2,5559.3z"/>
		</g>
		<g>
			<path class="st0" d="M1698.9,2607l11.7,16c4,5.5,8.8,11,13.5,16.3c11,12.5,22.3,25.4,25.9,40.8c8.6,36.7,15.7,69.8,16.2,103.7
				c0.5,39.5-8.7,73.4-28.1,103.7c-5.1,8-13.8,12.7-22.3,17.2c-3.6,1.9-7,3.7-10,5.7l-10.3,6.9L1698.9,2607z"/>
		</g>
		<g>
			<path class="st0" d="M1659.2,3239.5l-22.7-112.4l8.3,0.3h0.1c0.4,0,1.1,0,1.7-0.1c0.8,0,1.6-0.1,2.5-0.1c4.8,0,6.9,2.3,7.8,4.2
				c25.4,53.5,72.8,68.8,123,85.1c17.5,5.7,35.7,11.6,52.7,19.2c14.2,6.3,24.1,20.3,33.6,33.8c4.1,5.7,8.3,11.7,12.6,16.7l14,16.2
				L1659.2,3239.5z"/>
		</g>
		<g>
			<path class="st0" d="M1544.6,3098.6l135.5-149l-0.8,18.2c-0.1,2.3,0.1,5,0.3,7.8c0.6,7.7,1.2,15.6-3.7,21
				c-34.6,38.1-42.9,82.7-25.2,136.6l4.6,14L1544.6,3098.6z"/>
		</g>
		<g>
			<path class="st0" d="M1580.5,2434l16,2.5c31.8,4.9,55.8,11.9,69.6,30.1c13.6,18,16.3,44.8,16.1,82.3l-0.1,19.4L1580.5,2434z"/>
		</g>
		<g>
			<path class="st0" d="M1522.9,2398.9l17-1.9c5.8-0.6,10.9-1,15.6-1c14.6,0,25.5,3.2,33.2,9.8c9.3,7.9,13.8,20.2,13.8,37.5v12.8
				L1522.9,2398.9z"/>
		</g>
		<g>
			
				<rect x="1654.5" y="2933.6" transform="matrix(0.4445 -0.8958 0.8958 0.4445 -1696.8903 3144.0571)" class="st0" width="64.1" height="13.1"/>
		</g>
		<g>
			
				<rect x="1680.8" y="2545.5" transform="matrix(0.8923 -0.4515 0.4515 0.8923 -979.6302 1038.9408)" class="st0" width="13.1" height="53.7"/>
		</g>
		<g>
			
				<rect x="1508.7" y="2370.4" transform="matrix(0.5447 -0.8386 0.8386 0.5447 -1311.5582 2357.345)" class="st0" width="13.1" height="32.4"/>
		</g>
		<g>
			<path class="st0" d="M3818.3,1813.6l75.9-24.9l2.6-7.4l5.1,4.9l7.9-2.6l-2.6,7.7l5.4,5.2l-8,2.6c-0.5,1.8-1,3.7-1.4,5.6l-0.9,4.1
				l-80.4,17.5L3818.3,1813.6z"/>
		</g>
		<g>
			<polygon class="st0" points="3895.7,1798.6 3890,1795.7 3897.1,1784.8 3908.5,1791.3 3902,1804.7 			"/>
		</g>
		<g>
			<path class="st0" d="M1278,1226.1l7.8-4.3c1.5-0.8,3.2-1.9,4.9-3.1c4.4-3,9.3-6.4,15.1-6.7c0.9-0.1,1.7-0.1,2.6-0.1
				c22.1,0,50.2,17.7,75.2,47.4c21,24.9,41.7,61.7,36.8,90.3l-2.1,12.2L1278,1226.1z"/>
		</g>
		<g>
			<polygon class="st0" points="1412.1,1357 1422.3,1349.1 1474,1395.5 1446.8,1423.8 			"/>
		</g>
		<g>
			
				<rect x="2708.5" y="5130.5" transform="matrix(0.7682 -0.6402 0.6402 0.7682 -2688.0808 2939.2983)" class="st0" width="13.1" height="102.6"/>
		</g>
		<g>
			
				<rect x="2655.5" y="5082.1" transform="matrix(0.8009 -0.5988 0.5988 0.8009 -2532.9629 2612.4675)" class="st0" width="13.1" height="66.2"/>
		</g>
		<g>
			<polygon class="st0" points="2675.7,5000.5 2696.2,4996.4 2701.9,5028.7 2682.5,5032.7 			"/>
		</g>
		<g>
			<polygon class="st0" points="2728,5048.1 2712.8,5017.7 2737.2,5009.8 2740.8,5044.3 2743.8,5050.3 2729.6,5062.3 			"/>
		</g>
		<g>
			<polygon class="st0" points="2725.9,5048.2 2737.3,5038.7 2750.3,5060.1 2739.3,5067.3 			"/>
		</g>
		<g>
			
				<rect x="2748.4" y="5218.7" transform="matrix(0.7071 -0.7071 0.7071 0.7071 -2889.5977 3479.1829)" class="st0" width="13.1" height="17.9"/>
		</g>
		<g>
			
				<rect x="1880.5" y="3284.2" transform="matrix(0.7004 -0.7138 0.7138 0.7004 -1792.4043 2336.6843)" class="st0" width="13.1" height="38.3"/>
		</g>
		<g>
			<path class="st0" d="M3146.3,6286.4l2.9-4.4c1.4-2.1,2.8-4.3,4.2-6.5l-67.5-218.6l-27.4-81.7l17.4-33.3h28.6l126.8,416l-11,6.4
				L3146.3,6286.4z"/>
		</g>
		<g>
			<path class="st0" d="M2883.5,5949.8l4-3.6c2.7-2.5,5.3-4.9,7.9-7.4l5.2-4.9l51.7,64.7l32.2,69.1l-4.1,3.2
				c-3.3,2.6-6.5,5.3-9.5,8.1l-5.9,5.4L2883.5,5949.8z"/>
		</g>
		<g>
			<polygon class="st0" points="2998.2,6126.6 3017.5,6108.5 3081.6,6182 3059.3,6203.8 			"/>
		</g>
		<g>
			<path class="st0" d="M2957.5,6073.3l4.5-4.1c3.3-3,6.7-5.9,10.2-8.7l5.2-4.1l48.4,62.1l-19.6,18.4L2957.5,6073.3z"/>
		</g>
		<g>
			
				<rect x="3244.8" y="6368.5" transform="matrix(0.832 -0.5548 0.5548 0.832 -3000.3486 2877.8667)" class="st0" width="13.1" height="48.4"/>
		</g>
		<g>
			
				<rect x="3270.8" y="6407.7" transform="matrix(0.8322 -0.5544 0.5544 0.8322 -3016.1565 2896.0608)" class="st0" width="13.1" height="48.4"/>
		</g>
		<g>
			<path class="st0" d="M3092.3,6244l23.3-22l30,40.1l-3.7,4c-2.1,2.2-4.2,4.5-6.3,6.8l-4.3,4.7L3092.3,6244z"/>
		</g>
		<g>
			<path class="st0" d="M3120.8,6269.5l5-5.5c2.1-2.3,4.3-4.6,6.4-6.9l3.7-4l33.7,21.2l-3.4,5.5c-2,3.2-4,6.3-6.1,9.4l-3.8,5.6
				L3120.8,6269.5z"/>
		</g>
		<g>
			<polygon class="st0" points="3076.8,6218.4 3096.5,6201.5 3123.9,6232.2 3101,6253.8 			"/>
		</g>
		<g>
			
				<rect x="3224.9" y="6355.8" transform="matrix(0.7057 -0.7085 0.7085 0.7057 -3559.0623 4162.9004)" class="st0" width="13.1" height="19.7"/>
		</g>
		<g>
			<polygon class="st0" points="3080.9,6224.2 3062.8,6206.1 3083.3,6187.9 3087.7,6192.5 3105.4,6211.2 3085.2,6228.5 			"/>
		</g>
		<g>
			<polygon class="st0" points="3050.6,6194 3073.6,6171.4 3091.6,6198.1 3072.1,6215.4 			"/>
		</g>
		<g>
			<polygon class="st0" points="3551.5,6037.3 3524.3,6017.4 3520.7,5980.2 3615.5,6037.5 3614.6,6069.1 3517.3,6179.3 
				3478.4,6181.3 			"/>
		</g>
		<g>
			<polygon class="st0" points="3601.4,6070.5 3602.7,6028.8 3744.4,6128.7 3737.7,6139.9 			"/>
		</g>
		<g>
			<path class="st0" d="M3362.5,6050.8l56.4-22.8l17.3,16.3l-32.2,105.6l-1.2,1.2c-1.7,1.7-3.5,3.3-5.4,4.8l-8.1,6.8L3362.5,6050.8z
				"/>
		</g>
		<g>
			<path class="st0" d="M3463.8,6012.8l-14.9-16l3.1-4.4c12.1-17.1,25.7-25.8,40.2-25.8c13.3,0,26.6,6.9,40.9,21.2l1.7,1.7l3,31.7
				L3463.8,6012.8z"/>
		</g>
		<g>
			
				<rect x="3291.5" y="5960.4" transform="matrix(0.8942 -0.4476 0.4476 0.8942 -2325.8872 2108.3154)" class="st0" width="13.1" height="30.2"/>
		</g>
		<g>
			
				<rect x="3304.2" y="5985.5" transform="matrix(0.7062 -0.708 0.708 0.7062 -3271.9795 4105.3652)" class="st0" width="13.1" height="19.4"/>
		</g>
		<g>
			
				<rect x="3357" y="6038.9" transform="matrix(0.7075 -0.7067 0.7067 0.7075 -3290.7751 4146.2197)" class="st0" width="13.1" height="19.4"/>
		</g>
		<g>
			<path class="st0" d="M3408,6035.8l23.2-22.7l4.6,5.1c2.7,2.9,5.5,5.8,8.3,8.6l4.1,4l-18.5,25.5L3408,6035.8z"/>
		</g>
		<g>
			
				<rect x="3343.9" y="6025.6" transform="matrix(0.7069 -0.7073 0.7073 0.7069 -3286.8625 4138.6992)" class="st0" width="13.1" height="19.5"/>
		</g>
		<g>
			<path class="st0" d="M3434.9,6036.2c-3.1-3-6.1-6.1-9-9.2l-4.2-4.7l22.8-22.5l4.6,5.2c2.8,3.1,5.7,6.2,8.7,9l5,4.8l-23.4,21.7
				L3434.9,6036.2z"/>
		</g>
		<g>
			
				<rect x="3330.7" y="6011.8" transform="matrix(0.7066 -0.7076 0.7076 0.7066 -3281.7195 4128.1509)" class="st0" width="13.1" height="19.4"/>
		</g>
		<g>
			
				<rect x="3317.4" y="5999" transform="matrix(0.7069 -0.7073 0.7073 0.7069 -3275.7222 4112.1836)" class="st0" width="13.1" height="19.3"/>
		</g>
		<g>
			<path class="st0" d="M3448.7,6023.4c-3.2-3.1-6.4-6.4-9.4-9.8l-4.1-4.6l22.3-22.2l18.8,20.2l-23.3,20.6L3448.7,6023.4z"/>
		</g>
		<g>
			<path class="st0" d="M3457.3,6641.7l-1-1.8c-16.3-28.4-20.8-49.6-14.1-66.8c6-15.4,20.7-26.6,44.8-34.1l8.5-2.7l-0.4,123.1
				L3457.3,6641.7z"/>
		</g>
		<g>
			<path class="st0" d="M3462.2,6433.4c-1.9-1.6-3.9-3.3-5.7-5l-2.8-2.5l8.2-39.7l22.8,6l-14.9,47.5L3462.2,6433.4z"/>
		</g>
		<g>
			<path class="st0" d="M3465.9,6506.6l31.7-5.4l1.1,6.5c0.9,5.6-0.6,10.8-4.4,15l-4.3,4.8L3465.9,6506.6z"/>
		</g>
		<g>
			
				<rect x="4092.4" y="6608.2" transform="matrix(0.928 -0.3727 0.3727 0.928 -2180.8987 2006.2695)" class="st0" width="13.1" height="72"/>
		</g>
		<g>
			<path class="st0" d="M4193.7,6647.5l-2.8,18.8l5.7-1.5l-6.5,8.2c-0.1,1.9-0.5,4.8-3.1,6.9c-1.3,1.1-2.8,1.7-4.1,2.1l-1.6,2h-3.2
				c-0.6,0-1.2-0.1-1.7-0.2l-15,4L4193.7,6647.5z"/>
		</g>
		<g>
			<path class="st0" d="M4167.3,6691.4l-18.7,4.5l22.5-21l3.2-10.7l4,4l9.9-9.3l-3.8,16.6c0.2,0.6,0.3,1.2,0.3,1.9v2.8l-1.8,1.7
				c-0.4,1.4-1,2.9-2,4.4c-1.9,2.7-4.7,3.4-6.6,3.6l-8.6,8L4167.3,6691.4z"/>
		</g>
		<g>
			<polygon class="st0" points="2700.5,4740.5 2786.9,4738.4 2873.7,4709.7 2873.7,4746.6 2818.9,4830.9 			"/>
		</g>
		<g>
			<path class="st0" d="M2624.2,4675.5l15.4-1.7c7.1-0.8,13.7-1.2,19.8-1.2c23.8,0,40.8,5.9,52.2,18c11.8,12.6,16.8,31,15.2,56.3
				l-0.8,12.9L2624.2,4675.5z"/>
		</g>
		<g>
			
				<rect x="2626.6" y="4662.9" transform="matrix(0.6285 -0.7778 0.7778 0.6285 -2657.0264 3784.303)" class="st0" width="13.1" height="21.5"/>
		</g>
		<g>
			<path class="st0" d="M2958.6,4553.5c-3-2.6-6.1-5.2-9.1-7.8l-6.1-5.3l41.5-31.8l-19.3,50.8L2958.6,4553.5z"/>
		</g>
		<g>
			<polygon class="st0" points="3498.7,6660.5 3524.2,6663.8 3508.5,6685.9 			"/>
		</g>
		<g>
			<polygon class="st0" points="3530.6,6692.9 3542.2,6681.1 3555.6,6690.9 3548.8,6702.1 			"/>
		</g>
		<g>
			<polygon class="st0" points="3528.3,6690.4 3534.5,6678.9 3554.3,6687.6 3542.6,6699.5 			"/>
		</g>
		<g>
			<polygon class="st0" points="2993.7,5673.7 2996.2,5672 2993.7,5672.4 2980.3,5579.9 2992.9,5576.5 3062.3,5744.5 3031.3,5745.3 
							"/>
		</g>
		<g>
			
				<rect x="2973.3" y="5550.6" transform="matrix(0.8964 -0.4432 0.4432 0.8964 -2157.7876 1897.1239)" class="st0" width="13.1" height="28.7"/>
		</g>
		<g>
			
				<rect x="3938.8" y="6407.2" transform="matrix(0.843 -0.5379 0.5379 0.843 -2834.5149 3130.2612)" class="st0" width="13.1" height="27.7"/>
		</g>
		<g>
			<polygon class="st0" points="3935.3,6271.8 3942.2,6261 3984.2,6276.5 3986.4,6322.9 			"/>
		</g>
		<g>
			<polygon class="st0" points="3870.8,6263 3881.8,6201 3958.1,6275.7 			"/>
		</g>
		<g>
			<path class="st1" d="M3486.1,1428.2c-64.5-0.9-129.1-1.8-193.6-2.8c-242-3.4-492.3-7-738.5-11.2c-18.4-0.3-36.7-4-54.5-7.6
				c-8-1.6-16.4-3.3-24.5-4.6l-5.6-0.9l0.1-21.2l11.4-13.5l1.4-0.6c15.9-6.8,32-13.6,47.6-20.2c47.7-20.2,97.1-41.1,144.7-63.5
				c4-1.9,7.1-11.8,9.5-19.8c1.5-4.9,3.1-9.9,5-14.4l0.1-0.3l15.4-27.3l1.5-0.9c8.1-4.8,17.6-8.9,26.8-13
				c18.6-8.2,37.9-16.7,42.7-28.8c11.3-28.5,24.2-48.6,40.3-63.1c18.2-16.3,40.5-25.3,68.3-27.5c4.7-0.4,9.5-0.6,14-0.6
				c27.7,0,52.7,6.9,74.4,20.5c20.6,13,38.7,32.4,53.8,57.7c6.2,10.3,14,20,20.3,27.8c1-3,1.9-6.1,2.8-9.1
				c4.3-14.4,8.1-26.7,17.7-32.7c10.3-6.3,21.3-9.6,32.7-9.6c33.1,0,67.7,26.7,97.6,75.2c12.4,5,24.5,8.9,36.1,12.6
				c24.6,7.8,45.9,14.6,58.9,29.7l3.6,4.2c53.8,62.4,104.5,121.3,192.6,126.6l6.9,0.4l-4.1,38.3L3486.1,1428.2z"/>
		</g>
		<g>
			<path class="st0" d="M3488.6,1402.7c-42.1-2.5-80.1-17-116-44.3c-31.8-24.1-59.2-56-85.8-86.8l-3.6-4.2
				c-10.6-12.3-30.2-18.5-53-25.7c-11.9-3.8-25.5-8.1-39.2-13.8l-2-0.8l-1.1-1.8c-27.3-45-59.2-70.8-87.5-70.8
				c-9,0-17.7,2.6-25.9,7.6c-5.4,3.3-8.6,14-12,25.3c-2,6.5-4.2,13.9-7.2,21l-4.4,10.6l-6.9-9.1c-1.9-2.5-4.3-5.4-6.8-8.5
				c-6.7-8.2-15-18.4-21.7-29.7c-28.8-48.3-67-71.8-116.9-71.8c-4.2,0-8.6,0.2-13,0.5c-46.9,3.7-76,28.3-97.5,82.3
				c-6.8,17.1-28.5,26.7-49.6,35.9c-8.8,3.9-18,7.9-25.5,12.3l-4,2.4l-9.9-8.4l42.4-56.5c-4.1-0.9-7.9-1.7-11.8-2.5
				c-14.3-3-26.6-5.6-39-8.7c-5-1.2-10.9-2.3-17.2-3.3c-19.5-3.3-36.3-6.2-39.9-17.1c-10.5-31.7-29.3-47.8-56-47.8
				c-11.8,0-25,3.3-38.3,9.6c-27.5,13-50.1,33.2-74,54.5c-23.8,21.2-48.4,43.2-78.6,58c-14,6.9-23.8,24.4-34.1,43
				c-2.9,5.3-5.9,10.6-9.1,15.9c21.7,0,43.6,0.2,64.9,0.3c25.5,0.1,51.9,0.3,78,0.3c49.3,0,89.4-0.6,125.9-1.8
				c18-0.6,35.9-7.4,54.8-14.7c7.6-2.9,15.4-5.9,23.2-8.4l2.1-4.7l4.1,2.7l10.4-3.2l-3.4,7.8l7.2,4.8l-10.7,3.3
				c-1.1,3-2.2,6.4-3.3,9.9c-3.6,11.5-7.2,23.4-16.5,27.8c-47.8,22.5-97.3,43.5-145.1,63.7c-15.6,6.6-31.7,13.4-47.6,20.2l-18.3,7.8
				l41.8-71.8c-17.8,2.8-35.2,5.4-52.2,8c-46.7,7.1-90.9,13.7-134.6,22.1c-16.5,3.2-29.2,4.6-39.9,4.6c-46.8,0-57-30.9-58.8-84.3
				l-0.1-2.2l32.6-47.2l5.5,4.8c2.8,2.5,5.6,5.3,8.3,8c5.6,5.7,11.9,12.2,16.7,12.2c4,0,9-5.2,14.1-14.5c4.1-7.4,8.4-14.8,12.6-21.9
				c5.5-9.3,11.1-18.8,16.1-28.4c5.9-11.6,11.1-23.4,16.6-36c2.4-5.5,4.9-11.3,7.5-17.1l2.7-6l6,2.7c5.2,2.4,10.6,5.2,15.7,7.9
				c12.5,6.5,25.4,13.3,35.7,13.3c8.1,0,19.7-3.9,27.4-37.3c2.1-9,12.1-16,20.2-20.3c9.8-5.2,20.7-8.5,29.2-8.8
				c17-0.7,34.2-6,52.4-11.7c19.8-6.1,40.2-12.4,60.8-12.4c25.3,0,47,9.8,66.5,29.8c4.3-0.8,15-6,22.2-9.5c6.6-3.2,13.5-6.6,19.7-9
				l5.2-2.1l30.3,50c4.4-1.6,8.8-3.1,13.1-4.5c13.2-4.5,26.9-9.1,38.5-16.2c30.4-18.5,66.9-28.7,102.9-28.7
				c39.1,0,76.2,12,104.7,33.7c23.2,17.8,42.5,28.8,66.9,28.8c9.1,0,18.5-1.5,28.8-4.6c3.6-1.1,7.5-1.6,11.8-1.6
				c24,0,54.8,16.8,72.8,33.3c32,29.4,60.8,47.3,99.3,61.8c31.5,11.9,56.8,39.1,81.2,65.5c13.1,14.1,26.7,28.8,40.9,40.7
				c23.5,19.7,52.9,35,76.5,47.4c2.7,1.4,5.7,2.7,8.6,3.9c8.5,3.6,16.5,7,16.7,14.7s-8,13.2-20.4,19.2l-1.5,0.7L3488.6,1402.7z"/>
		</g>
		<g>
			<path class="st0" d="M1960.4,924c-15.4,0-30.7-11.1-45.6-21.9c-7-5.1-14.3-10.4-21.2-14.2c-18.4-10.1-37.3-20.1-59.1-31.7
				c-10.5-5.6-21.9-11.6-34.4-18.3l-4.3-2.3l13.3-63.7l7.8,4.3c15.4,8.6,30.7,18.1,45.6,27.4c32.2,20,65.4,40.7,100.6,51.9
				c33.2,10.6,65.9,15.9,96.9,15.9c77.1,0,146.6-32.4,206.5-96.4c8.3-8.8,17.8-16.5,27-23.9c4.1-3.3,8.4-6.8,12.5-10.2l10.8-9.3V842
				l-4.5,1.5c-12.7,4.3-25.5,9-39.1,14c-31.5,11.6-64,23.5-98,31.3c-79,17.9-148.4,29.4-212.2,35.1
				C1962.2,924,1961.3,924,1960.4,924z"/>
		</g>
		<g>
			<path class="st0" d="M2344.2,747.2l29.6-59.2l73.9,3.5l-5.4,9.3c-2.5,4.3-5,8.6-7.5,12.8c-6.2,10.6-12.7,21.5-18.6,32.4
				c-0.9,1.6-1.4,4-2,6.5c-0.9,4.1-2,8.8-5.2,12.6c-8.1,9.5-17.1,18.5-25.7,27.2c-3.3,3.4-6.8,6.8-10.1,10.3l-7.5,7.7L2344.2,747.2z
				"/>
		</g>
		<g>
			<polygon class="st0" points="3094.5,1909.8 3093.6,1885.3 3222,1885.3 3223.6,1909.8 			"/>
		</g>
		<g>
			<polygon class="st0" points="2790.4,1488.9 2787.1,1456.5 2879.6,1456.5 2880.2,1488.9 			"/>
		</g>
		<g>
			
				<rect x="2221.7" y="1238" transform="matrix(0.5681 -0.8229 0.8229 0.5681 -54.398 2385.4963)" class="st0" width="47.8" height="13.1"/>
		</g>
		<g>
			<path class="st0" d="M2922.7,1491.9c-4.9,0-7.7-4.3-11.6-10.2c-1.1-1.6-2.1-3.3-3-4.4l-4.1-5.3l31-23.1l3.5,7.1
				c0.8,1.5,1.9,3.4,3,5.2c3.7,6.1,7.2,11.8,3.7,16.9c-4.8,7.2-13.8,11.7-20.6,13.6C2924,1491.8,2923.3,1491.9,2922.7,1491.9z"/>
		</g>
		<g>
			
				<rect x="2450.7" y="1414.5" transform="matrix(0.4414 -0.8973 0.8973 0.4414 90.0315 3003.2983)" class="st0" width="13.1" height="29.6"/>
		</g>
		<g>
			<path class="st0" d="M2440.4,1363h4.1c4.2,0,8.5,0.1,12.8,0.2l6.4,0.1l0.1,6.4c0,4.3,0,8.6,0,12.9v3.9l-48.1,25.8L2440.4,1363z"
				/>
		</g>
		<g>
			<polygon class="st0" points="1271.5,1173.2 1312.6,1194.1 1274.3,1206.6 			"/>
		</g>
		<g>
			
				<rect x="1630" y="1706.3" transform="matrix(0.4369 -0.8995 0.8995 0.4369 -625.7401 2440.667)" class="st0" width="13.1" height="27.7"/>
		</g>
		<g>
			<path class="st0" d="M2470.8,1399.4c-3.1-4.3-5.3-9-6.6-14.1l-1.6-6.4l20.1-4.9l-0.3,41.5L2470.8,1399.4z"/>
		</g>
		<g>
			<path class="st0" d="M2444.3,1376.1l0.2-13.1c4.2,0,8.5,0.1,12.8,0.2l-0.2,13.1L2444.3,1376.1z"/>
		</g>
		<g>
			<path class="st0" d="M3440.2,1555.4l7.7-7.7l3.3,0.5c14.3,2.2,30.6,5.8,42.3,15c12.7,10,18.1,24.7,16.3,44.9l-0.2,2.4l-7.2,7.2
				L3440.2,1555.4z"/>
		</g>
		<g>
			<path class="st0" d="M3521.5,1493.3c-6.1,0-16.4-8.1-18.4-14.4c-1.8-5.6,2.1-10.6,5.9-15.4c1.3-1.7,2.7-3.4,3.7-5l3.2-4.9
				l30.7,15.2l-5.3,6.4c-1.2,1.4-2.3,2.9-3.5,4.5c-3.4,4.6-7,9.4-12.3,12.5C3524.3,1493,3523,1493.3,3521.5,1493.3z"/>
		</g>
		<g>
			<polygon class="st0" points="3492.8,1608.9 3496.7,1604.9 3496.7,1589.7 3513.5,1609.5 3504.2,1618.7 			"/>
		</g>
		<g>
			<polygon class="st0" points="1745.4,2397.1 1815,2368.7 1829.9,2397.7 1763.9,2438.4 			"/>
		</g>
		<g>
			<polygon class="st0" points="1984.7,3291.1 2009.4,3291 2013.6,3335.9 1982.4,3339.2 			"/>
		</g>
		<g>
			
				<rect x="2484.2" y="2202.5" transform="matrix(0.9005 -0.4349 0.4349 0.9005 -716.2802 1303.817)" class="st0" width="13.1" height="28.9"/>
		</g>
		<g>
			
				<rect x="2199" y="2023.3" transform="matrix(0.442 -0.897 0.897 0.442 -597.5687 3115.6504)" class="st0" width="13.1" height="29.6"/>
		</g>
		<g>
			<path class="st0" d="M3225.6,6176.4c-85.8-149.6-109-312.2-131.5-469.4l12.8-2.7l130.7,467L3225.6,6176.4z"/>
		</g>
		<g>
			<path class="st0" d="M3460,6233.2l-1.4-1.5l-12.3-11.8h1.4l-64.1-69.7l5.3-4.4c1.6-1.3,3.1-2.7,4.6-4.1l2.8-2.7l93.8,28.6
				l30.7-1.5l-0.7,48.1l-13.9,19.7L3460,6233.2z"/>
		</g>
		<g>
			<path class="st0" d="M3073.9,5950.9c-2.2-5.3-4.7-10.6-7.1-15.8c-5.7-12.1-11.6-24.7-14.2-38.1c-3.7-19.5-5-39.5-6.3-58.9
				c-0.5-8.1-1.1-16.5-1.8-24.7v-0.5l2.1-39.3l2.4-1.8c2.4-1.8,4.9-3.4,7.5-4.9l7.7-4.3l43.7,192.4l-32.4,0.1L3073.9,5950.9z"/>
		</g>
		<g>
			<path class="st0" d="M3252.8,6228.9l4.1-3.7c2.7-2.5,5.5-4.9,8.4-7.1l6-4.8l44.7,77.7l-3.6,3.6c-1.7,1.7-3.5,3.5-5.1,5.2
				l-5.8,6.1L3252.8,6228.9z"/>
		</g>
		<g>
			<polygon class="st0" points="3043.9,5617.6 3054.2,5607.5 3088.4,5649.6 3061.6,5666.6 			"/>
		</g>
		<g>
			<polygon class="st0" points="2986.9,5503.3 3010.9,5496.9 3019.8,5535.2 2998.3,5541 			"/>
		</g>
		<g>
			<path class="st0" d="M3029.6,5763.2l-1.3-31l29.5-0.7l9.3,44.4l-4.2,2.4c-2.1,1.2-4.1,2.5-6,3.9l-4.5,3.4L3029.6,5763.2z"/>
		</g>
		<g>
			<path class="st0" d="M3240.1,6202.2l3.5-3.3c1.7-1.7,3.5-3.4,5.2-5.2l5.8-6.1l23.4,37l-4.6,3.7c-2.6,2.1-5.2,4.3-7.8,6.6
				l-6.4,5.8L3240.1,6202.2z"/>
		</g>
		<g>
			<polygon class="st0" points="3026,5588.1 3021.5,5592.7 3019.6,5580.1 3004.1,5560.7 3015.8,5555.2 3015.7,5554.1 3016.4,5555 
				3028.2,5549.4 3032,5574.6 3035.3,5578.7 3033,5581.1 3036,5600.6 			"/>
		</g>
		<g>
			<polygon class="st0" points="3454.8,6228 3461.1,6215.9 3472,6226.3 3466,6234.8 			"/>
		</g>
		<g>
			<polygon class="st0" points="3015.2,5580.3 3025.6,5569.9 3038.9,5578.4 3032.1,5589.7 			"/>
		</g>
		<g>
			<path class="st0" d="M3306.8,6307.7l12.3-12.3l23,21.9l-4.6,4.8c-2,2.1-4.1,4.2-6.1,6.4l-5.4,5.7L3306.8,6307.7z"/>
		</g>
		<g>
			<path class="st0" d="M3234,6165.3l16.4,19.2c2.7,3.2,5.4,6.3,8.1,9.5l3.9,4.5l-4.1,4.3c-1.8,1.9-3.7,3.8-5.6,5.6l-8.7,8.3
				L3234,6165.3z"/>
		</g>
		<g>
			<path class="st0" d="M3293.3,6295.3l4.4-4.6c1.8-1.9,3.6-3.7,5.4-5.5l5.2-5.2l19.7,25.1l-12.6,12.6L3293.3,6295.3z"/>
		</g>
		<g>
			<polygon class="st0" points="3039.2,5616.9 3046.6,5606.3 3064.7,5615.6 3051.7,5628.4 			"/>
		</g>
		<g>
			<path class="st0" d="M3645.4,6305.4l9.2-1.4c0.8-0.1,1.7-0.3,2.6-0.5c2.3-0.4,4.8-0.9,7.5-0.9c0.4,0,0.8,0,1.1,0
				c4.1,0.2,6.3,3.4,7.7,5.3c0.2,0.3,0.6,0.8,0.7,1l5.7,6.5l-23.2,11.1L3645.4,6305.4z"/>
		</g>
		<g>
			<polygon class="st0" points="3668.4,6292.8 3683.8,6268.7 3691.9,6296.2 			"/>
		</g>
		<g>
			<path class="st0" d="M2977.3,5899.7l-9.5-29.1l-16.1-39.6l84.6-79.8l23.5,23.1l-2.4,44.5l-5.7,0.5c-44.4,3.7-44.1,28.5-43.6,59.8
				c0.2,10.8,0.3,21.9-1.7,32.1l-2.1,10.9L2977.3,5899.7z"/>
		</g>
		<g>
			
				<rect x="3039.3" y="5927.5" transform="matrix(0.7074 -0.7068 0.7068 0.7074 -3318.552 3895.4875)" class="st0" width="13.1" height="57"/>
		</g>
		<g>
			
				<rect x="3006.2" y="5903.6" transform="matrix(0.7069 -0.7073 0.7073 0.7069 -3306.1643 3866.8594)" class="st0" width="13.1" height="38.3"/>
		</g>
		<g>
			<path class="st0" d="M2695.6,1257.4c-1.7,0-2.9-0.6-3.5-1l-5.8-2.9l5.2-9.3l11.2-24.2l0.9-0.8c0.9-0.9,2.6-1.9,4.6-1.9
				c1.4,0,2.9,0.5,4.5,1.8l5.5,4.7l-14.9,26.5l-3.4,7.3h-4.3V1257.4z"/>
		</g>
		<g>
			<path class="st1" d="M2486.6,1283.6c-26.1,0-52.5-0.2-78.1-0.3c-25.3-0.1-51.4-0.3-76.9-0.3H2319l7.2-10.3
				c5.3-7.6,10.3-16.5,15-25c10.9-19.5,22.1-39.8,39.9-48.4c28.6-14,52.5-35.3,75.7-56c23.5-21,47.9-42.8,77.1-56.6
				c15.2-7.2,30-10.9,43.9-10.9c15.3,0,28.8,4.5,40.2,13.3c12.4,9.6,21.9,24.2,28.3,43.4c0.1,0.2,1.5,2,8.8,4.1
				c5.9,1.7,13.5,3,20.8,4.2c6.3,1.1,12.8,2.2,18.2,3.5c12.1,3,24.3,5.6,38.4,8.6c6.9,1.4,14,2.9,21.9,4.6l10,2.2l-50.6,67.4
				l-13.4,29.1l-2.8,0.9c-8.5,2.6-17.2,6-25.6,9.2c-19.1,7.3-38.8,14.9-59.1,15.6C2576.2,1283,2536.1,1283.6,2486.6,1283.6z"/>
		</g>
		<g>
			<polygon class="st0" points="3499.8,6039.4 3511.1,6022.1 3545.4,6040.7 3528.9,6063.1 			"/>
		</g>
	</g>
</g>
</svg>
