<?xml version="1.0" encoding="utf-8"?>
<!-- Generator: Adobe Illustrator 23.0.6, SVG Export Plug-In . SVG Version: 6.00 Build 0)  -->
<svg version="1.1" id="Layer_1" xmlns="http://www.w3.org/2000/svg" xmlns:xlink="http://www.w3.org/1999/xlink" x="0px" y="0px"
	 viewBox="0 0 672.4 380.8" style="enable-background:new 0 0 672.4 380.8;" xml:space="preserve">
<style type="text/css">
	.st0{fill:#CDDD51;}
	.st1{fill:#FFFFFF;}
</style>
<g>
	<g>
		<g>
			<path class="st0" d="M482,23.6c0.6-1,1.3-1.9,2-2.7c0.7-0.8,1.5-1.5,2.4-2.1c1.7-1.2,3.5-2.1,5.4-2.9c3.7-1.7,7.5-3.3,11.3-4.7
				c7.6-2.8,15.5-5.1,23.5-6.8c8-1.7,16.1-3,24.3-3.7s16.4-0.9,24.7-0.4l6.2,0.4l6.2,0.7c2.1,0.3,4.1,0.6,6.2,1
				c2.1,0.4,4.1,0.8,6.2,1.2c2,0.5,4.1,1,6.1,1.5c2,0.5,4.1,1.2,6.1,1.8c2,0.7,4,1.4,6,2.1c2,0.8,4,1.6,5.9,2.4
				c7.8,3.4,15.4,7.9,22.3,13.4c3.4,2.8,6.7,5.8,9.7,9l2.2,2.5c0.8,0.8,1.4,1.8,2.1,2.6l2,2.7c0.7,0.9,1.4,1.9,2,3
				c2.5,4,4.6,8.5,6,13.3c1.4,4.8,2,9.9,1.6,15.1c-0.1,1.3-0.3,2.6-0.5,3.9l-0.4,1.9c-0.1,0.6-0.3,1.3-0.5,1.9l-0.5,1.8
				c-0.2,0.6-0.5,1.2-0.7,1.8l-0.7,1.8l-0.8,1.7c-2.3,4.5-5.2,8.4-8.5,11.8c-3.3,3.4-7,6.2-11,8.6c-3.9,2.3-8,4.2-12.3,5.7
				c-4.3,1.4-8.6,2.3-12.9,2.9c-4.3,0.6-8.6,0.7-12.8,0.7c-8.4-0.1-16.7-1.1-24.7-2.7c-8-1.6-15.9-3.6-23.7-6
				c-7.8-2.4-15.4-5.2-22.9-8.5c-3.7-1.6-7.7-3.5-11.4-6.1c-1.9-1.3-3.7-2.9-5.4-4.8c-1.7-1.9-3.2-4.2-4.2-6.8
				c-0.3-0.6-0.5-1.3-0.7-2c-0.2-0.7-0.3-1.3-0.4-2c-0.3-1.3-0.3-2.7-0.4-4.1c0.1-2.8,0.6-5.6,1.8-8.1l0.4-0.9l0.5-0.9
				c0.3-0.6,0.7-1.2,1.1-1.7c0.8-1,1.6-2.1,2.5-3c1.8-1.9,3.8-3.3,5.8-4.6c4.1-2.5,8.5-4,13.1-4.8c0.6-0.1,1.2-0.2,1.7-0.2l1.6-0.1
				l1.6-0.1l1.6,0c1.1,0,2.1-0.1,3.2,0c1.1,0,2.1,0,3.2,0.1c8.4,0.4,16.6,2.1,24.5,4.3c4,1.2,7.9,2.5,11.7,4.1
				c3.8,1.6,7.6,3.4,11.3,5.4c0.9,0.5,1.8,1,2.8,1.6l2.7,1.7c1.8,1.2,3.5,2.4,5.2,3.8c3.4,2.8,6.6,5.9,9.2,9.8
				c2.7,3.8,4.7,8.2,5.7,13c0.2,1.2,0.4,2.4,0.6,3.6l0.2,3.6c0,1.2-0.1,2.4-0.2,3.6c0,0.6-0.1,1.2-0.2,1.8l-0.3,1.8
				c-0.2,1.2-0.5,2.3-0.9,3.4c-0.3,1.1-0.7,2.2-1.2,3.4l-0.7,1.7c-0.2,0.6-0.5,1.1-0.8,1.6l-0.9,1.6l-1,1.6
				c-2.7,4.1-6.2,7.6-10,10.3c-3.8,2.7-7.9,4.8-12,6.4c-4.1,1.6-8.2,2.8-12.3,3.7c-8.2,1.9-16.4,2.7-24.4,3.4
				c-8,0.7-15.9,1.1-23.5,1.9l-1.4,0.2c-0.5,0.1-1,0.1-1.3,0.2c-0.8,0.1-1.6,0.2-2.3,0.5c-1.5,0.3-2.8,0.9-4,1.5
				c-1.1,0.6-1.9,1.4-2.6,2.2c-0.7,0.9-1.2,1.9-1.5,3.2c-0.3,1.3-0.5,2.9-0.4,4.5c0.1,0.8,0.1,1.7,0.2,2.5c0.1,0.4,0.1,0.8,0.2,1.3
				l0.3,1.5c0.7,3.9,1.5,7.9,2.1,12c0.6,4.1,1,8.3,0.7,12.6c-0.3,4.3-1.1,8.5-2.6,12.4c-1.4,3.9-3.3,7.6-5.6,11.1
				c-2.2,3.4-4.7,6.6-7.2,9.7c-5.1,6.2-10.5,12-15.9,17.8c-5.4,5.8-11,11.4-16.2,17.4c-0.1,0.2-0.4,0.2-0.5,0
				c-0.2-0.1-0.2-0.4,0-0.5c5-6.1,10.2-12.1,15.3-18.2c5.1-6.1,10.1-12.2,14.6-18.6c2.3-3.2,4.5-6.4,6.3-9.8
				c1.8-3.3,3.3-6.9,4.3-10.5c1-3.6,1.5-7.3,1.4-10.9c0-3.7-0.7-7.4-1.5-11.1c-0.9-3.7-2.1-7.4-3.4-11.1l-0.5-1.4
				c-0.2-0.4-0.3-1-0.5-1.6c-0.4-1.1-0.6-2.2-0.9-3.3c-0.5-2.3-0.7-4.7-0.5-7.3c0.3-2.6,1.1-5.4,2.6-7.8c1.5-2.4,3.6-4.5,5.9-5.9
				c2.3-1.4,4.6-2.5,6.9-3.1c1.2-0.4,2.3-0.6,3.5-0.9c0.6-0.1,1.1-0.2,1.6-0.3l1.5-0.3c8.2-1.3,16-2,23.8-2.9
				c7.8-0.9,15.3-2.1,22.5-3.8c7.2-1.7,14-4.2,19.3-7.9c2.6-1.9,4.8-4.1,6.5-6.6l0.6-0.9l0.5-1c0.2-0.3,0.4-0.7,0.5-1l0.4-1.1
				c0.3-0.7,0.5-1.5,0.8-2.2c0.3-0.8,0.5-1.5,0.7-2.3c1.6-6.2,0.9-12.3-2.2-18.2c-1.5-2.9-3.6-5.7-6.1-8.3c-1.2-1.3-2.6-2.5-4-3.7
				l-2.2-1.7c-0.8-0.5-1.5-1-2.3-1.6c-3.1-2-6.5-3.7-9.9-5.2c-3.5-1.4-7.1-2.7-10.7-3.6s-7.4-1.7-11.1-2.1
				c-3.7-0.5-7.5-0.7-11.2-0.6c-0.9,0-1.8,0.1-2.8,0.1c-0.9,0-1.8,0.1-2.7,0.2l-1.3,0.1l-1.3,0.2l-1.3,0.2c-0.4,0.1-0.8,0.2-1.2,0.3
				c-3.2,0.7-6.3,2.1-8.9,3.8c-1.3,0.9-2.5,1.8-3.4,2.9c-0.5,0.5-0.9,1.1-1.3,1.6c-0.2,0.3-0.3,0.6-0.5,0.8l-0.2,0.4l-0.2,0.4
				c-0.5,1.1-0.6,2.2-0.7,3.4c0,0.6,0,1.2,0.2,1.8c0.1,0.3,0.1,0.6,0.2,0.9c0.1,0.3,0.1,0.6,0.3,0.8c0.4,1.1,1.1,2.2,2,3.3
				c0.9,1.1,2,2.2,3.3,3.2c2.6,2.1,5.7,3.9,9.2,5.7c6.8,3.6,13.8,6.7,21.1,9.3c7.3,2.5,14.8,4.5,22.3,5.7c7.6,1.1,15.2,1.5,22.6,0.7
				c7.4-0.8,14.5-2.7,20.7-5.8c6.1-3.1,11.5-7.6,15.5-12.6c2-2.5,3.5-5.2,4.7-7.8c1.1-2.7,1.7-5.4,1.9-8.1
				c0.3-5.4-1.3-11.4-4.6-16.8c-0.4-0.7-0.8-1.3-1.3-2l-1.5-2.1c-0.5-0.7-1-1.4-1.6-2l-1.7-2c-2.3-2.6-4.8-5.1-7.4-7.4
				c-0.6-0.6-1.3-1.1-2-1.7l-2.1-1.6c-1.4-1.1-2.9-2-4.4-3l-4.6-2.8l-4.8-2.6c-1.7-0.8-3.3-1.6-5-2.3c-1.7-0.7-3.4-1.4-5.1-2.1
				c-1.7-0.6-3.5-1.3-5.2-1.9c-1.8-0.5-3.5-1.1-5.3-1.7c-1.8-0.5-3.6-1-5.4-1.4l-5.5-1.2l-5.5-1.1L574,15c-15-2-30.5-2-45.7-0.1
				c-7.6,1-15.2,2.4-22.6,4.5c-3.7,1-7.4,2.2-11,3.5c-1.8,0.6-3.5,1.5-5.5,1.9c-1.9,0.5-3.9,0.8-6.3,0.5h0c-0.6-0.1-1.1-0.6-1-1.3
				C481.9,23.8,481.9,23.7,482,23.6z"/>
		</g>
	</g>
	<g id="Text_1_">
		<g>
			<path class="st1" d="M56.9,313.6l-25.8,25.9v40.7H0.8V221h30.3v81.7l80.5-81.7h34l-68.4,71.2l72.6,88.1h-35.4L56.9,313.6z"/>
			<path class="st1" d="M166.7,233.9c-3.6-3.3-5.4-7.3-5.4-12.2c0-4.9,1.8-8.9,5.4-12.2c3.6-3.3,8-4.9,13.3-4.9
				c5.3,0,9.7,1.6,13.3,4.7c3.6,3.1,5.4,7,5.4,11.7c0,5-1.7,9.2-5.2,12.6c-3.5,3.4-8,5.1-13.4,5.1
				C174.7,238.7,170.3,237.1,166.7,233.9z M165.4,258.8h29.1v121.5h-29.1V258.8z"/>
			<path class="st1" d="M276.8,246h-54v-25h138.3v25h-54v134.3h-30.3V246z"/>
			<path class="st1" d="M464.1,270.3c9.7,8.6,14.5,21.5,14.5,38.8v71.2h-27.5v-14.8c-3.6,5.3-8.7,9.4-15.2,12.2
				c-6.6,2.8-14.5,4.2-23.9,4.2c-9.3,0-17.5-1.6-24.4-4.7c-7-3.1-12.4-7.4-16.2-13c-3.8-5.5-5.7-11.8-5.7-18.8
				c0-10.9,4.1-19.7,12.5-26.3c8.3-6.6,21.4-9.9,39.2-9.9h32.1v-1.8c0-8.5-2.6-15-7.8-19.6c-5.2-4.6-12.9-6.8-23.2-6.8
				c-7,0-13.8,1.1-20.6,3.2c-6.8,2.1-12.5,5.1-17.1,8.9l-11.4-20.7c6.5-4.9,14.4-8.6,23.5-11.2c9.2-2.6,18.9-3.9,29.1-3.9
				C440.4,257.4,454.4,261.7,464.1,270.3z M437.6,356.3c5.7-3.3,9.7-7.9,12-14v-14.1h-30c-16.8,0-25.1,5.4-25.1,16.2
				c0,5.2,2.1,9.3,6.3,12.3c4.2,3,10,4.6,17.5,4.6C425.4,361.2,431.9,359.5,437.6,356.3z"/>
			<path class="st1" d="M624.1,270.8c9.5,9,14.2,22.2,14.2,39.8v69.6h-29.1v-66c0-10.6-2.6-18.6-7.7-24c-5.1-5.4-12.4-8.1-21.9-8.1
				c-10.7,0-19.2,3.2-25.4,9.4c-6.2,6.3-9.3,15.4-9.3,27.2v61.4h-29.1V258.8h27.7v15.7c4.8-5.6,10.9-9.9,18.2-12.7
				c7.3-2.9,15.5-4.3,24.7-4.3C602.1,257.4,614.6,261.9,624.1,270.8z"/>
		</g>
	</g>
</g>
</svg>
